<svg id="Capa_1" enable-background="new 0 0 512 512" height="512" viewBox="0 0 512 512" width="512" xmlns="http://www.w3.org/2000/svg" xmlns:xlink="http://www.w3.org/1999/xlink"><linearGradient id="SVGID_1_" gradientUnits="userSpaceOnUse" x1="241" x2="241" y1="481.001" y2="60.999"><stop offset="0" stop-color="#ffe59a"/><stop offset="1" stop-color="#ffffd5"/></linearGradient><linearGradient id="SVGID_2_" gradientUnits="userSpaceOnUse" x1="346.5" x2="346.5" y1="361.006" y2="30.999"><stop offset="0" stop-color="#fd5900"/><stop offset="1" stop-color="#ffde00"/></linearGradient><g><g><g><path d="m482 60.999h-271v105c0-8.291-6.709-15-15-15h-151c-24.814 0-45 20.186-45 45v180c0 24.814 20.186 45 45 45h15v45c0 6.064 3.662 11.543 9.258 13.857 5.454 2.294 11.988 1.108 16.348-3.252l55.605-55.605h144.789c24.814 0 45-20.186 45-45v-90c0-8.291-6.709-15-15-15h166z" fill="url(#SVGID_1_)"/></g></g><g><g><path d="m467 30.999h-241c-24.901 0-45 20.099-45 45v180c0 24.899 20.099 45 45 45h144.699l55.801 55.499c4.433 4.929 11.876 5.463 16.199 3.3 5.7-2.399 9.3-7.798 9.3-13.799v-45h15c24.901 0 45-20.101 45-45v-180c.001-24.901-20.098-45-44.999-45zm-211 60h60c8.401 0 15 6.599 15 15 0 8.399-6.599 15-15 15h-60c-8.401 0-15-6.601-15-15 0-8.401 6.599-15 15-15zm181 150h-181c-8.401 0-15-6.601-15-15 0-8.401 6.599-15 15-15h181c8.401 0 15 6.599 15 15 0 8.399-6.599 15-15 15zm0-60h-181c-8.401 0-15-6.601-15-15 0-8.401 6.599-15 15-15h181c8.401 0 15 6.599 15 15 0 8.399-6.599 15-15 15z" fill="url(#SVGID_2_)"/></g></g></g></svg>