<?xml version="1.0" encoding="iso-8859-1"?>
<!-- Generator: Adobe Illustrator 19.0.0, SVG Export Plug-In . SVG Version: 6.00 Build 0)  -->
<svg xmlns="http://www.w3.org/2000/svg" xmlns:xlink="http://www.w3.org/1999/xlink" version="1.1" id="Layer_1" x="0px" y="0px" viewBox="0 0 512 512" style="enable-background:new 0 0 512 512;" xml:space="preserve">
<g>
	<path d="M437.02,74.98C388.667,26.629,324.38,0,256,0S123.333,26.629,74.98,74.98C26.629,123.333,0,187.62,0,256   s26.629,132.667,74.98,181.02C123.333,485.371,187.62,512,256,512s132.667-26.629,181.02-74.98C485.371,388.667,512,324.38,512,256   S485.371,123.333,437.02,74.98z M256,482C131.383,482,30,380.617,30,256S131.383,30,256,30s226,101.383,226,226   S380.617,482,256,482z"/>
	<path d="M256,60C147.925,60,60,147.925,60,256s87.925,196,196,196s196-87.925,196-196S364.075,60,256,60z M256,422   c-91.533,0-166-74.467-166-166S164.467,90,256,90s166,74.467,166,166S347.533,422,256,422z"/>
	<polygon points="271,241 271,120 241,120 241,271 392,271 392,241  "/>
	<rect x="241" y="362" width="30" height="30"/>
	<rect x="301.5" y="345.789" transform="matrix(-0.5 -0.866 0.866 -0.5 162.2998 815.2814)" width="30" height="30"/>
	<rect x="345.789" y="301.5" transform="matrix(-0.866 -0.5 0.5 -0.866 514.9918 770.9913)" width="30" height="30"/>
	<rect x="180.5" y="136.211" transform="matrix(-0.5 -0.866 0.866 -0.5 162.2973 396.1243)" width="30" height="30"/>
	<rect x="136.211" y="180.5" transform="matrix(-0.866 -0.5 0.5 -0.866 184.4133 440.4134)" width="30" height="30"/>
	<rect x="120" y="241" width="30" height="30"/>
	<rect x="136.211" y="301.5" transform="matrix(-0.5 -0.866 0.866 -0.5 -47.2803 605.7025)" width="30" height="30"/>
	<rect x="180.5" y="345.789" transform="matrix(-0.866 -0.5 0.5 -0.866 184.4136 770.9916)" width="30" height="30"/>
</g>















</svg>
