<svg id="svg" version="1.1" xmlns="http://www.w3.org/2000/svg" xmlns:xlink="http://www.w3.org/1999/xlink" width="400" height="255.63549160671465" viewBox="0, 0, 400,255.63549160671465"><g id="svgg"><path id="path0" d="M224.460 13.549 C 224.460 13.769,224.576 13.910,224.718 13.863 C 224.860 13.816,224.976 13.674,224.976 13.549 C 224.976 13.424,224.860 13.283,224.718 13.235 C 224.576 13.188,224.460 13.329,224.460 13.549 M193.439 43.166 C 192.799 43.280,191.612 43.437,190.802 43.515 C 188.964 43.692,186.961 44.008,183.573 44.655 C 182.122 44.933,180.288 45.241,179.496 45.340 C 177.385 45.605,175.768 45.960,174.186 46.504 C 171.897 47.291,165.487 49.537,163.549 50.230 C 162.560 50.584,161.182 51.192,160.488 51.580 C 159.794 51.968,158.715 52.458,158.090 52.669 C 155.753 53.456,145.800 58.340,144.739 59.220 C 144.545 59.382,144.270 59.442,144.129 59.355 C 143.988 59.268,143.903 59.294,143.939 59.412 C 144.003 59.622,141.849 61.524,139.937 62.945 C 139.414 63.334,138.814 63.818,138.604 64.020 C 137.600 64.989,136.595 65.677,136.378 65.542 C 136.239 65.457,136.212 65.514,136.313 65.678 C 136.421 65.854,135.545 66.939,134.005 68.532 C 132.639 69.946,130.831 71.934,129.987 72.950 C 129.143 73.965,128.347 74.731,128.218 74.651 C 128.088 74.571,128.060 74.629,128.154 74.783 C 128.248 74.935,128.168 75.356,127.976 75.719 C 125.503 80.395,123.430 88.991,124.034 92.069 C 124.152 92.672,124.341 93.651,124.455 94.245 C 125.012 97.162,126.176 100.139,127.595 102.278 C 128.619 103.821,129.288 105.271,129.109 105.561 C 129.014 105.714,129.050 105.763,129.193 105.675 C 129.524 105.470,130.771 107.119,130.552 107.473 C 130.455 107.629,130.486 107.683,130.624 107.598 C 130.757 107.516,131.124 107.729,131.440 108.072 C 131.756 108.414,133.147 109.571,134.532 110.642 C 135.917 111.713,137.860 113.357,138.849 114.294 C 140.791 116.134,144.242 118.567,146.803 119.901 C 147.682 120.359,148.356 120.807,148.301 120.896 C 148.246 120.985,148.391 121.009,148.623 120.948 C 148.855 120.887,150.500 121.324,152.280 121.919 C 154.060 122.514,156.649 123.232,158.034 123.515 C 159.418 123.798,160.929 124.196,161.391 124.398 C 162.252 124.776,164.965 125.038,170.863 125.312 C 174.167 125.465,174.277 125.454,177.698 124.601 C 184.012 123.027,184.750 122.787,187.376 121.460 C 191.349 119.453,191.836 119.594,196.657 124.161 C 199.607 126.955,201.157 125.845,201.920 120.395 C 202.508 116.197,203.021 114.977,204.351 114.619 C 204.892 114.473,206.894 113.604,208.798 112.688 C 210.703 111.772,212.365 111.086,212.491 111.164 C 212.618 111.243,212.692 111.209,212.656 111.091 C 212.620 110.972,213.818 110.038,215.318 109.016 C 216.818 107.993,218.167 107.058,218.316 106.937 C 220.250 105.363,220.877 104.879,221.634 104.377 L 222.524 103.785 224.152 105.219 C 226.326 107.134,227.448 107.801,230.083 108.742 C 231.302 109.178,232.667 109.703,233.116 109.910 C 234.376 110.490,238.709 112.230,238.892 112.230 C 239.068 112.230,241.836 113.442,243.099 114.071 C 243.523 114.283,243.831 114.522,243.781 114.602 C 243.731 114.683,243.977 114.769,244.327 114.795 C 249.530 115.180,250.301 115.819,249.243 118.877 C 248.045 122.340,249.567 124.302,252.069 122.520 C 252.459 122.242,254.008 121.601,255.511 121.095 C 257.014 120.588,258.517 119.996,258.849 119.778 C 259.335 119.459,259.609 119.431,260.243 119.632 C 262.542 120.363,277.493 120.461,278.700 119.753 C 278.789 119.700,279.922 119.504,281.218 119.317 C 293.890 117.487,304.169 112.686,307.836 106.886 C 308.173 106.354,308.522 106.046,308.679 106.143 C 308.843 106.245,308.880 106.201,308.774 106.030 C 308.679 105.876,308.986 105.117,309.457 104.343 C 309.927 103.568,310.312 102.857,310.312 102.763 C 310.312 102.668,310.462 102.250,310.646 101.835 C 313.258 95.933,312.536 85.092,309.136 79.137 C 307.627 76.494,306.741 74.633,306.906 74.451 C 306.999 74.348,306.948 74.336,306.794 74.424 C 306.484 74.602,306.257 74.337,303.732 70.848 C 300.442 66.301,292.967 59.897,289.342 58.518 C 288.989 58.384,288.766 58.167,288.847 58.037 C 288.930 57.902,288.838 57.859,288.635 57.937 C 288.438 58.013,287.110 57.698,285.685 57.237 C 282.423 56.183,279.732 55.895,272.542 55.833 C 264.757 55.766,259.725 56.561,251.079 59.223 C 244.796 61.158,244.220 61.347,241.634 62.324 C 240.198 62.866,238.924 63.309,238.803 63.309 C 238.512 63.309,236.664 64.128,234.980 65.003 C 233.430 65.809,233.405 65.797,232.627 63.823 C 231.112 59.977,229.981 57.994,228.408 56.422 C 227.541 55.555,226.004 53.765,224.992 52.444 C 223.778 50.861,222.742 49.782,221.948 49.274 C 220.785 48.531,217.698 47.002,217.361 47.002 C 217.271 47.002,216.430 46.637,215.493 46.190 C 214.556 45.743,213.411 45.301,212.950 45.208 C 212.488 45.116,211.193 44.771,210.072 44.443 C 208.429 43.962,207.010 43.784,202.758 43.526 C 199.856 43.350,196.835 43.150,196.043 43.082 C 195.252 43.014,194.080 43.051,193.439 43.166 M198.441 46.534 C 199.760 46.663,202.432 46.866,204.379 46.986 C 206.358 47.108,208.366 47.364,208.935 47.567 C 209.494 47.766,210.600 48.110,211.391 48.332 C 213.881 49.030,219.810 51.691,220.598 52.464 C 220.830 52.692,221.624 53.687,222.363 54.676 C 223.102 55.665,224.512 57.311,225.497 58.333 C 227.489 60.402,229.208 63.769,229.873 66.904 C 230.056 67.762,230.384 69.167,230.603 70.024 C 231.476 73.442,231.258 78.164,230.099 80.959 C 229.930 81.367,229.714 82.284,229.619 82.997 C 229.426 84.448,228.978 86.213,228.439 87.650 C 228.241 88.177,228.074 88.746,228.068 88.914 C 228.062 89.082,227.744 89.891,227.361 90.712 C 226.977 91.534,226.433 92.800,226.151 93.525 C 225.869 94.251,225.320 95.276,224.931 95.803 C 224.542 96.331,223.786 97.408,223.251 98.198 C 222.569 99.204,221.618 100.121,220.072 101.264 C 218.858 102.161,217.326 103.338,216.667 103.880 C 216.007 104.421,214.712 105.353,213.789 105.949 C 212.866 106.546,211.679 107.325,211.151 107.682 C 208.221 109.660,203.430 111.544,201.507 111.473 C 199.306 111.391,198.954 111.702,199.153 113.559 C 199.245 114.418,199.195 115.899,199.038 116.954 C 198.495 120.606,198.275 120.910,196.990 119.779 C 192.466 115.801,191.105 115.548,186.808 117.889 C 182.750 120.100,175.852 122.062,172.140 122.062 C 169.377 122.062,164.343 121.599,162.710 121.194 C 161.918 120.998,160.408 120.638,159.353 120.394 C 156.135 119.651,152.804 118.645,149.473 117.410 C 147.578 116.708,142.574 113.344,141.344 111.946 C 140.960 111.509,139.162 109.978,137.349 108.545 C 135.450 107.044,133.671 105.420,133.153 104.714 C 132.244 103.475,129.743 99.358,129.728 99.075 C 129.724 98.990,129.511 98.489,129.257 97.962 C 129.002 97.434,128.790 96.781,128.785 96.511 C 128.781 96.240,128.677 95.917,128.556 95.791 C 128.223 95.449,127.775 93.153,127.645 91.127 C 127.491 88.722,128.326 83.721,129.216 81.717 C 129.466 81.155,129.968 79.903,130.332 78.934 C 131.087 76.928,132.831 74.592,135.841 71.557 C 136.902 70.488,138.209 69.139,138.745 68.559 C 139.844 67.372,141.995 65.568,145.295 63.066 C 147.437 61.442,157.565 56.176,159.420 55.721 C 159.779 55.633,160.881 55.146,161.871 54.640 C 162.860 54.133,163.812 53.718,163.987 53.718 C 164.162 53.717,165.187 53.357,166.265 52.917 C 168.493 52.008,169.268 51.728,174.075 50.098 C 176.089 49.415,178.185 48.867,179.110 48.782 C 179.982 48.702,181.343 48.492,182.134 48.314 C 184.818 47.711,187.402 47.267,189.808 46.994 C 191.127 46.844,192.692 46.636,193.285 46.532 C 194.802 46.266,195.701 46.267,198.441 46.534 M271.223 59.233 C 271.223 59.299,273.439 59.353,276.148 59.353 C 279.157 59.353,281.139 59.446,281.244 59.592 C 281.338 59.724,281.767 59.848,282.198 59.868 C 282.629 59.888,283.168 59.986,283.397 60.087 C 283.930 60.322,283.876 60.308,285.073 60.527 C 285.634 60.630,286.033 60.811,285.960 60.930 C 285.886 61.048,285.991 61.082,286.193 61.005 C 286.774 60.782,291.540 63.536,291.186 63.890 C 291.088 63.988,291.115 64.038,291.247 63.999 C 291.849 63.826,294.097 65.365,293.842 65.777 C 293.752 65.923,293.811 65.947,293.988 65.837 C 294.358 65.609,295.969 67.109,295.756 67.484 C 295.674 67.628,295.699 67.662,295.812 67.559 C 296.059 67.334,299.071 70.260,298.891 70.551 C 298.822 70.663,298.908 70.726,299.083 70.689 C 299.258 70.653,299.374 70.758,299.341 70.923 C 299.308 71.088,299.382 71.223,299.506 71.223 C 299.631 71.223,300.207 71.844,300.788 72.602 C 302.537 74.886,304.616 78.001,304.276 77.826 C 304.100 77.736,304.129 77.805,304.340 77.980 C 304.772 78.338,305.640 79.881,305.565 80.156 C 305.538 80.255,305.624 80.336,305.755 80.336 C 305.887 80.336,305.995 80.498,305.995 80.695 C 305.995 80.893,306.087 81.055,306.199 81.055 C 306.489 81.055,307.212 82.991,307.031 83.284 C 306.945 83.423,306.999 83.454,307.157 83.356 C 307.330 83.249,307.445 83.371,307.464 83.679 C 307.493 84.151,307.545 84.439,307.672 84.832 C 307.704 84.931,307.718 85.093,307.702 85.192 C 307.687 85.291,307.795 85.372,307.944 85.372 C 308.114 85.372,308.162 85.630,308.073 86.074 C 307.990 86.490,308.039 86.813,308.195 86.864 C 308.572 86.990,308.800 94.964,308.427 94.964 C 308.277 94.964,308.153 95.078,308.153 95.218 C 308.153 95.358,308.276 95.396,308.426 95.304 C 308.622 95.182,308.653 95.461,308.536 96.309 C 308.276 98.201,308.125 98.812,307.946 98.701 C 307.853 98.643,307.763 98.777,307.747 98.998 C 307.628 100.603,305.035 105.516,304.308 105.516 C 304.165 105.516,304.109 105.614,304.184 105.735 C 304.324 105.961,301.749 108.393,301.369 108.393 C 301.252 108.393,300.599 108.865,299.918 109.442 C 298.460 110.677,297.216 111.357,296.838 111.124 C 296.683 111.028,296.635 111.064,296.725 111.211 C 296.903 111.499,295.582 112.039,295.306 111.791 C 295.207 111.703,295.194 111.748,295.275 111.891 C 295.462 112.220,292.930 113.294,292.537 113.052 C 292.358 112.941,292.315 112.978,292.423 113.152 C 292.529 113.324,292.424 113.429,292.148 113.429 C 291.903 113.429,291.585 113.547,291.440 113.691 C 291.296 113.836,290.736 113.971,290.195 113.991 C 289.654 114.012,289.211 114.100,289.210 114.186 C 289.209 114.273,288.976 114.283,288.692 114.208 C 288.308 114.108,288.224 114.154,288.367 114.385 C 288.513 114.621,288.405 114.668,287.925 114.576 C 287.576 114.510,287.290 114.534,287.290 114.630 C 287.290 114.786,286.137 115.048,284.760 115.204 C 284.490 115.235,284.166 115.322,284.041 115.396 C 283.805 115.537,281.634 115.876,280.568 115.939 C 280.234 115.958,279.817 116.063,279.640 116.172 C 279.464 116.281,278.280 116.410,277.010 116.458 C 275.740 116.507,273.891 116.619,272.902 116.707 C 270.252 116.945,263.265 116.936,262.710 116.694 C 261.683 116.247,259.392 116.327,258.959 116.825 C 258.673 117.155,258.253 117.288,257.515 117.283 C 255.932 117.272,255.396 117.348,255.396 117.583 C 255.396 117.701,255.234 117.735,255.036 117.659 C 254.838 117.583,254.676 117.613,254.676 117.725 C 254.676 117.999,253.758 118.226,253.323 118.059 C 253.121 117.982,252.995 117.661,253.022 117.296 C 253.119 116.020,252.988 115.188,252.620 114.734 C 252.412 114.478,252.321 114.420,252.417 114.605 C 252.538 114.838,252.499 114.885,252.291 114.756 C 252.125 114.654,251.836 114.202,251.648 113.752 C 251.167 112.601,250.239 112.133,247.736 111.779 C 246.539 111.609,245.620 111.373,245.694 111.254 C 245.768 111.134,245.661 111.101,245.456 111.179 C 245.251 111.258,245.084 111.206,245.084 111.064 C 245.084 110.922,244.949 110.857,244.784 110.919 C 244.454 111.043,239.989 109.011,240.178 108.823 C 240.242 108.759,239.944 108.696,239.517 108.684 C 239.089 108.672,238.703 108.554,238.658 108.421 C 238.614 108.289,238.406 108.247,238.195 108.328 C 237.919 108.433,237.866 108.385,238.007 108.157 C 238.138 107.946,238.111 107.897,237.927 108.010 C 237.653 108.180,234.782 107.038,234.511 106.652 C 234.433 106.541,234.136 106.433,233.851 106.412 C 233.566 106.390,233.333 106.270,233.333 106.144 C 233.333 106.018,233.262 105.986,233.176 106.073 C 233.089 106.160,232.873 106.111,232.696 105.964 C 232.519 105.817,232.374 105.758,232.374 105.833 C 232.374 106.045,229.948 105.158,229.078 104.629 C 228.649 104.368,228.380 104.066,228.478 103.957 C 228.577 103.849,228.516 103.842,228.344 103.941 C 228.002 104.138,225.420 101.737,225.420 101.221 C 225.420 101.062,225.544 101.008,225.697 101.102 C 225.880 101.215,225.908 101.167,225.780 100.960 C 225.664 100.773,225.722 100.538,225.923 100.378 C 226.108 100.230,226.367 99.927,226.499 99.705 C 226.631 99.483,227.285 98.515,227.954 97.552 C 229.327 95.577,229.594 95.035,229.514 94.398 C 229.480 94.133,229.561 94.017,229.714 94.111 C 229.867 94.205,229.918 94.131,229.840 93.928 C 229.768 93.741,229.858 93.437,230.041 93.254 C 230.225 93.071,230.325 92.772,230.264 92.590 C 230.191 92.370,230.257 92.323,230.462 92.450 C 230.669 92.578,230.711 92.545,230.589 92.347 C 230.487 92.183,230.564 91.930,230.764 91.771 C 230.959 91.615,231.178 91.217,231.248 90.887 C 231.600 89.254,232.077 87.596,232.331 87.126 C 232.487 86.838,232.614 86.278,232.614 85.881 C 232.614 85.485,232.712 85.100,232.831 85.026 C 232.951 84.952,232.995 84.687,232.930 84.437 C 232.864 84.187,232.951 83.728,233.122 83.418 C 233.294 83.108,233.406 82.718,233.373 82.553 C 233.339 82.387,233.469 81.902,233.662 81.474 C 234.023 80.672,234.207 79.807,234.412 77.938 C 234.477 77.344,234.601 76.481,234.688 76.019 C 234.902 74.884,234.881 74.081,234.578 71.823 C 234.365 70.232,234.380 69.812,234.670 69.368 C 235.095 68.714,236.844 67.784,237.216 68.014 C 237.365 68.106,237.418 68.072,237.335 67.938 C 237.149 67.638,238.309 67.081,238.664 67.300 C 238.818 67.395,238.854 67.348,238.752 67.183 C 238.640 67.003,238.787 66.906,239.174 66.906 C 239.501 66.906,239.804 66.805,239.848 66.681 C 239.892 66.557,240.234 66.400,240.608 66.333 C 240.982 66.266,241.436 66.089,241.617 65.939 C 241.798 65.789,242.058 65.736,242.196 65.821 C 242.333 65.906,242.446 65.885,242.446 65.774 C 242.446 65.490,243.905 64.972,244.197 65.153 C 244.330 65.235,244.365 65.183,244.275 65.037 C 244.127 64.797,245.311 64.415,245.896 64.513 C 246.014 64.533,246.188 64.423,246.283 64.268 C 246.379 64.114,246.856 63.950,247.345 63.905 C 247.833 63.859,248.360 63.718,248.517 63.591 C 248.797 63.363,251.704 62.442,252.638 62.285 C 252.902 62.241,253.711 62.018,254.436 61.791 C 256.935 61.008,257.199 60.939,258.718 60.671 C 259.556 60.523,260.301 60.461,260.375 60.534 C 260.448 60.608,260.632 60.564,260.784 60.438 C 261.130 60.150,265.457 59.437,265.751 59.619 C 265.871 59.693,266.101 59.643,266.264 59.508 C 266.708 59.140,271.223 58.889,271.223 59.233 M72.302 126.772 C 70.474 127.143,68.937 127.761,68.135 128.447 C 67.626 128.883,67.124 129.163,67.020 129.068 C 66.915 128.974,66.910 129.037,67.009 129.207 C 67.107 129.378,67.085 129.648,66.959 129.807 C 66.561 130.309,65.986 132.436,65.815 134.033 C 65.725 134.879,65.546 135.904,65.418 136.311 C 64.869 138.051,64.453 140.063,64.250 141.966 C 64.130 143.088,63.927 144.868,63.797 145.923 C 63.668 146.978,63.490 148.996,63.401 150.407 C 63.206 153.518,63.593 153.293,58.513 153.250 C 52.120 153.195,49.436 153.650,47.642 155.092 C 47.268 155.393,46.864 155.578,46.745 155.505 C 46.626 155.431,46.588 155.527,46.662 155.719 C 46.735 155.910,46.678 156.139,46.535 156.227 C 45.879 156.633,44.790 161.151,45.348 161.151 C 45.441 161.151,45.636 161.492,45.781 161.909 C 45.926 162.326,46.310 163.014,46.633 163.438 C 46.957 163.862,47.145 164.294,47.052 164.397 C 46.959 164.501,47.005 164.516,47.154 164.430 C 47.303 164.345,47.681 164.474,47.993 164.716 C 49.094 165.571,50.970 166.004,53.196 165.917 C 54.340 165.872,56.355 165.855,57.674 165.878 C 58.993 165.902,60.798 165.925,61.685 165.930 C 63.520 165.940,63.455 165.856,63.633 168.465 C 63.687 169.257,63.850 171.361,63.994 173.141 C 64.475 179.050,64.506 179.883,64.242 179.720 C 64.072 179.615,64.069 179.708,64.232 180.011 C 64.363 180.255,64.594 181.697,64.747 183.213 C 65.097 186.707,65.615 189.632,66.221 191.546 C 66.482 192.370,66.618 193.170,66.524 193.322 C 66.421 193.489,66.458 193.534,66.618 193.436 C 66.950 193.230,67.470 194.160,67.287 194.636 C 67.213 194.830,67.253 194.926,67.377 194.850 C 67.676 194.665,68.174 195.618,67.960 195.965 C 67.859 196.128,67.898 196.171,68.056 196.074 C 68.202 195.983,68.436 196.124,68.576 196.385 C 68.716 196.647,69.362 197.555,70.013 198.404 C 70.664 199.253,71.121 200.030,71.030 200.132 C 70.938 200.234,70.984 200.248,71.132 200.163 C 71.280 200.079,71.658 200.234,71.971 200.508 C 76.777 204.699,86.721 203.789,89.284 198.924 C 89.762 198.018,90.271 194.392,89.887 194.629 C 89.799 194.684,89.606 194.362,89.458 193.914 C 88.583 191.262,84.435 189.433,81.566 190.433 C 80.436 190.827,79.699 190.529,78.974 189.384 C 77.798 187.528,77.452 185.289,76.737 174.940 C 76.601 172.962,76.383 170.413,76.254 169.277 C 75.938 166.501,75.958 165.337,76.327 165.031 C 76.649 164.763,81.507 164.210,87.112 163.802 C 93.581 163.331,96.720 159.960,94.973 155.361 C 94.714 154.680,94.569 154.014,94.650 153.883 C 94.732 153.751,94.694 153.707,94.567 153.786 C 94.440 153.864,94.032 153.606,93.659 153.211 C 91.626 151.057,87.111 150.764,77.218 152.146 C 75.818 152.341,75.741 152.179,76.027 149.625 C 76.166 148.380,76.375 146.283,76.492 144.964 C 76.608 143.645,77.052 141.271,77.477 139.688 C 78.321 136.550,78.612 130.159,77.890 130.605 C 77.626 130.768,77.176 129.760,77.365 129.431 C 77.459 129.269,77.449 129.214,77.344 129.309 C 77.240 129.403,76.684 129.067,76.109 128.561 C 75.535 128.055,74.580 127.506,73.988 127.340 C 73.395 127.174,72.969 126.944,73.040 126.829 C 73.174 126.612,73.113 126.607,72.302 126.772 M233.906 131.292 C 227.792 132.622,224.341 140.301,227.570 145.393 C 230.211 149.558,236.580 148.285,237.313 143.446 C 237.732 140.681,240.101 143.218,241.196 147.602 C 242.184 151.561,242.288 153.096,241.874 157.554 C 241.386 162.798,241.860 162.332,236.811 162.521 C 231.381 162.724,229.490 163.695,228.782 166.646 C 227.800 170.738,230.526 172.808,236.630 172.605 C 240.920 172.463,240.828 172.386,239.935 175.365 C 239.027 178.389,238.848 179.593,238.627 184.173 C 238.522 186.349,238.299 189.651,238.131 191.510 C 237.634 197.031,239.117 199.520,242.904 199.520 C 246.871 199.520,248.678 195.205,248.682 185.720 C 248.683 183.120,249.140 179.949,249.872 177.458 C 250.240 176.205,250.619 174.611,250.714 173.915 C 250.868 172.783,251.301 171.960,251.756 171.933 C 251.845 171.928,252.512 171.884,253.237 171.836 C 253.963 171.788,255.312 171.906,256.235 172.098 C 260.049 172.891,262.624 171.189,262.784 167.768 C 262.961 163.991,260.348 161.964,255.136 161.835 C 251.775 161.752,251.673 161.677,251.955 159.492 C 253.237 149.543,250.127 138.282,245.106 134.696 C 240.659 131.520,237.406 130.531,233.906 131.292 M204.676 131.558 C 203.408 131.870,201.874 132.560,199.847 133.730 C 197.543 135.061,197.217 135.200,197.505 134.735 C 197.612 134.562,197.571 134.523,197.395 134.632 C 197.241 134.727,197.168 134.891,197.233 134.997 C 197.298 135.102,197.124 135.391,196.848 135.639 C 196.021 136.382,194.341 138.661,193.569 140.086 C 192.124 142.758,191.638 144.290,190.756 148.964 C 190.309 151.332,190.172 157.214,190.502 159.887 C 190.803 162.327,190.772 162.350,187.299 162.350 C 181.559 162.350,178.036 166.234,180.140 170.242 C 181.415 172.670,182.504 172.973,188.402 172.538 C 191.195 172.332,191.508 172.485,191.723 174.157 C 191.813 174.851,192.190 176.445,192.560 177.698 C 193.461 180.742,193.513 181.071,193.772 185.372 C 194.545 198.219,195.320 200.128,199.760 200.116 C 203.531 200.106,205.092 197.522,204.559 192.173 C 204.390 190.477,204.173 187.308,204.076 185.132 C 203.877 180.634,203.628 178.909,202.764 176.032 C 201.859 173.019,201.704 173.142,206.309 173.207 C 210.148 173.261,210.205 173.254,211.361 172.602 C 212.681 171.858,212.809 171.819,212.566 172.242 C 212.467 172.413,212.485 172.458,212.608 172.345 C 212.727 172.237,212.831 172.021,212.840 171.866 C 212.849 171.710,213.160 170.953,213.530 170.183 C 214.286 168.609,214.263 167.581,213.433 165.955 C 212.310 163.753,210.692 163.147,205.561 163.005 C 201.106 162.881,201.215 162.951,200.925 160.032 C 200.185 152.573,201.142 146.465,203.487 143.677 C 204.262 142.757,204.978 142.691,205.151 143.525 C 205.220 143.855,205.336 144.421,205.410 144.784 C 206.313 149.209,213.199 149.732,215.357 145.539 C 218.837 138.775,211.956 129.768,204.676 131.558 M290.495 162.342 C 285.168 162.947,281.197 165.050,276.947 169.515 C 274.880 171.686,273.990 172.463,274.483 171.666 C 274.590 171.493,274.549 171.454,274.374 171.562 C 274.219 171.658,274.159 171.843,274.240 171.974 C 274.437 172.292,273.624 173.172,273.312 172.979 C 273.178 172.896,273.139 172.943,273.226 173.084 C 273.313 173.224,272.966 174.131,272.455 175.099 C 271.044 177.771,270.936 178.432,271.027 183.828 L 271.108 188.609 271.893 190.279 C 272.325 191.197,272.755 192.006,272.850 192.077 C 272.945 192.148,273.318 192.642,273.679 193.174 C 275.346 195.634,277.218 197.131,279.619 197.925 C 280.607 198.252,282.095 198.805,282.926 199.154 C 284.573 199.846,290.552 200.427,292.806 200.113 C 295.140 199.789,299.518 197.138,300.865 195.234 C 301.787 193.932,302.187 193.988,303.822 195.649 C 308.051 199.944,313.662 202.059,316.622 200.473 C 317.121 200.205,317.649 200.060,317.795 200.150 C 317.954 200.249,317.992 200.204,317.889 200.038 C 317.796 199.887,317.982 199.412,318.304 198.982 C 320.264 196.366,319.012 192.590,315.739 191.247 C 313.360 190.272,312.758 189.927,311.561 188.849 C 309.451 186.951,308.886 185.419,308.864 181.535 C 308.805 171.106,306.549 166.014,300.975 163.731 C 297.285 162.220,294.645 161.870,290.495 162.342 M154.436 167.056 C 150.819 167.590,148.144 168.366,147.482 169.073 C 147.416 169.144,146.715 169.616,145.923 170.123 C 145.132 170.630,144.077 171.328,143.578 171.674 C 143.080 172.019,142.432 172.435,142.139 172.598 C 141.846 172.761,141.696 172.896,141.804 172.898 C 141.913 172.900,141.023 173.894,139.826 175.107 C 138.629 176.320,137.650 177.406,137.650 177.519 C 137.650 177.633,137.539 177.658,137.404 177.574 C 137.269 177.491,137.182 177.511,137.211 177.620 C 137.240 177.729,136.877 178.627,136.406 179.616 C 135.455 181.612,135.088 184.555,135.535 186.608 C 135.659 187.181,135.868 188.405,135.997 189.329 C 136.508 192.963,140.877 198.759,144.255 200.285 C 150.286 203.009,160.682 202.087,164.683 198.472 C 165.925 197.350,166.248 197.376,167.138 198.669 C 169.892 202.673,176.501 204.752,179.292 202.493 C 183.020 199.476,181.712 194.620,176.776 193.154 C 175.300 192.716,174.240 191.492,173.730 189.641 C 173.221 187.788,172.993 180.204,173.365 177.480 C 173.735 174.772,173.543 173.975,172.142 172.425 C 171.922 172.182,171.782 171.943,171.831 171.894 C 171.880 171.845,171.736 171.793,171.511 171.778 C 170.657 171.720,168.903 170.916,167.866 170.107 C 164.243 167.283,159.774 166.268,154.436 167.056 M123.261 168.381 C 121.876 168.493,120.150 168.691,119.424 168.821 C 116.388 169.363,113.456 170.047,112.079 170.533 L 110.609 171.052 109.654 170.285 C 106.949 168.111,103.331 168.791,101.754 171.770 C 101.253 172.717,101.247 173.399,101.646 183.453 C 101.816 187.740,101.893 192.297,101.818 193.581 C 101.525 198.606,103.315 201.293,106.954 201.293 C 110.970 201.293,112.289 198.941,112.386 191.607 C 112.461 185.902,112.660 184.757,114.085 181.834 C 115.044 179.866,117.557 179.118,125.604 178.407 C 131.956 177.845,133.642 177.209,134.543 175.035 C 134.700 174.656,134.898 174.390,134.984 174.443 C 135.217 174.587,134.890 171.673,134.595 170.983 C 133.460 168.326,130.970 167.755,123.261 168.381 M296.313 172.812 C 297.615 173.430,297.954 174.312,297.495 175.890 C 297.290 176.595,297.122 177.545,297.122 178.001 C 297.122 179.128,295.189 184.919,294.105 187.038 C 292.507 190.164,289.640 190.798,285.132 189.022 C 284.143 188.633,283.144 188.249,282.913 188.169 C 281.039 187.522,280.305 181.695,281.818 179.478 C 285.699 173.795,292.141 170.832,296.313 172.812 M160.111 177.363 C 161.568 178.196,162.204 179.342,161.999 180.765 C 161.321 185.476,160.206 188.701,158.747 190.169 C 156.894 192.033,152.106 192.597,148.874 191.332 C 146.021 190.217,145.776 185.686,148.407 182.690 C 148.792 182.251,149.355 181.407,149.658 180.814 C 150.892 178.398,151.908 177.604,154.279 177.205 C 155.223 177.047,156.208 176.839,156.467 176.743 C 157.255 176.453,159.054 176.759,160.111 177.363 " stroke="none" fill="#fc9404" fill-rule="evenodd"></path><path id="path1" d="M201.619 43.095 C 201.915 43.152,202.401 43.152,202.698 43.095 C 202.995 43.038,202.752 42.991,202.158 42.991 C 201.565 42.991,201.322 43.038,201.619 43.095 M204.257 43.335 C 204.553 43.392,205.039 43.392,205.336 43.335 C 205.632 43.278,205.390 43.231,204.796 43.231 C 204.203 43.231,203.960 43.278,204.257 43.335 M180.935 44.604 C 180.282 44.770,180.271 44.788,180.815 44.799 C 181.145 44.805,181.631 44.718,181.894 44.604 C 182.486 44.350,181.934 44.350,180.935 44.604 M172.542 46.523 C 172.240 46.653,172.195 46.729,172.422 46.729 C 172.620 46.729,172.998 46.636,173.261 46.523 C 173.564 46.393,173.608 46.317,173.381 46.317 C 173.183 46.317,172.806 46.409,172.542 46.523 M192.686 46.938 C 190.340 47.240,185.816 47.953,181.655 48.677 C 180.863 48.815,179.460 49.044,178.537 49.187 C 177.614 49.330,175.456 49.934,173.741 50.529 C 165.467 53.402,162.871 54.372,161.964 54.932 C 161.544 55.192,160.622 55.607,159.916 55.855 C 156.480 57.061,147.734 61.485,145.751 63.021 C 140.813 66.845,136.777 70.679,132.874 75.254 C 131.278 77.124,129.223 81.730,128.654 84.709 C 128.446 85.799,128.173 87.143,128.047 87.696 C 127.305 90.950,128.875 98.259,130.791 100.469 C 130.968 100.673,131.407 101.379,131.767 102.038 C 133.005 104.309,134.286 105.723,137.223 108.056 C 138.843 109.343,140.869 111.062,141.727 111.875 C 145.671 115.620,151.242 118.299,158.153 119.777 C 159.209 120.002,160.989 120.438,162.110 120.746 C 163.585 121.150,165.422 121.387,168.754 121.602 C 173.840 121.931,174.119 121.898,179.532 120.357 C 180.871 119.976,182.134 119.664,182.340 119.664 C 182.546 119.664,184.402 118.801,186.466 117.746 C 191.297 115.275,191.916 115.331,195.961 118.599 C 196.849 119.317,197.717 119.904,197.890 119.904 C 198.406 119.904,199.125 115.539,198.922 113.640 C 198.700 111.572,199.348 110.893,201.324 111.122 C 204.087 111.443,210.762 108.112,216.956 103.321 C 218.038 102.484,219.628 101.285,220.488 100.658 C 221.939 99.599,222.646 98.761,224.726 95.637 C 226.155 93.490,228.892 86.167,229.145 83.815 C 229.238 82.946,229.017 83.475,228.346 85.731 C 225.642 94.819,223.657 97.935,217.866 102.192 C 209.879 108.063,205.219 110.524,201.581 110.794 C 198.783 111.002,198.434 111.348,198.652 113.706 C 198.797 115.270,198.283 118.800,197.843 119.268 C 197.737 119.380,196.876 118.880,195.928 118.158 C 191.943 115.122,191.202 115.051,186.638 117.270 C 177.243 121.838,170.207 122.452,159.134 119.670 C 149.192 117.171,146.166 115.605,139.437 109.472 C 139.292 109.341,138.758 108.909,138.250 108.513 C 134.341 105.467,132.995 103.852,130.677 99.422 C 128.168 94.626,127.663 91.133,128.715 85.827 C 129.807 80.319,131.644 76.877,135.850 72.455 C 143.467 64.450,148.008 61.320,158.513 56.835 C 160.426 56.018,162.098 55.266,162.230 55.162 C 162.599 54.873,169.006 52.472,173.022 51.118 C 175.357 50.330,177.881 49.685,180.216 49.279 C 182.194 48.934,184.245 48.552,184.772 48.429 C 198.495 45.232,216.601 48.330,221.674 54.742 C 222.532 55.827,223.785 57.308,224.459 58.034 C 227.431 61.234,228.761 64.207,230.351 71.212 C 230.863 73.472,230.715 76.114,229.874 79.719 C 229.106 83.009,229.200 83.180,230.112 80.152 C 230.972 77.298,231.104 72.092,230.372 69.904 C 230.151 69.245,229.804 67.914,229.600 66.947 C 228.960 63.913,227.154 60.444,225.104 58.311 C 224.133 57.301,222.662 55.575,221.835 54.476 C 220.379 52.540,220.255 52.441,217.900 51.314 C 213.698 49.304,213.376 49.175,210.432 48.337 C 207.459 47.490,206.891 47.415,200.240 46.995 C 198.064 46.857,196.067 46.712,195.803 46.672 C 195.540 46.632,194.137 46.752,192.686 46.938 M168.225 48.090 C 167.626 48.379,167.606 48.412,168.106 48.290 C 168.785 48.124,169.549 47.735,169.185 47.740 C 169.053 47.742,168.621 47.899,168.225 48.090 M223.022 49.760 C 223.469 50.222,223.889 50.600,223.955 50.600 C 224.021 50.600,223.709 50.222,223.261 49.760 C 222.814 49.299,222.394 48.921,222.328 48.921 C 222.262 48.921,222.574 49.299,223.022 49.760 M163.789 49.652 C 163.195 49.895,162.872 50.097,163.070 50.101 C 163.267 50.104,163.861 49.903,164.388 49.653 C 165.614 49.074,165.204 49.073,163.789 49.652 M155.576 53.135 C 154.679 53.621,154.734 53.824,155.635 53.357 C 156.031 53.153,156.355 52.934,156.355 52.872 C 156.355 52.717,156.329 52.726,155.576 53.135 M226.027 53.237 C 226.511 54.116,227.440 55.175,228.254 55.776 C 229.103 56.403,229.095 56.384,228.035 55.252 C 227.429 54.606,226.685 53.807,226.381 53.477 C 226.077 53.147,225.918 53.040,226.027 53.237 M264.508 55.646 C 264.139 55.770,264.601 55.795,265.707 55.711 C 266.697 55.635,267.551 55.533,267.606 55.484 C 267.805 55.307,265.092 55.449,264.508 55.646 M251.918 58.513 C 251.616 58.643,251.572 58.719,251.799 58.719 C 251.996 58.719,252.374 58.627,252.638 58.513 C 252.940 58.383,252.985 58.307,252.758 58.307 C 252.560 58.307,252.182 58.400,251.918 58.513 M241.127 61.999 C 240.527 62.288,240.507 62.321,241.007 62.199 C 241.687 62.033,242.450 61.643,242.086 61.649 C 241.954 61.651,241.523 61.808,241.127 61.999 M133.813 67.986 C 132.830 68.975,132.080 69.784,132.146 69.784 C 132.212 69.784,133.070 68.975,134.053 67.986 C 135.035 66.996,135.785 66.187,135.719 66.187 C 135.653 66.187,134.796 66.996,133.813 67.986 M302.983 69.383 C 303.352 69.868,303.703 70.264,303.762 70.264 C 303.928 70.264,302.890 68.861,302.583 68.671 C 302.434 68.579,302.613 68.899,302.983 69.383 M130.077 72.122 C 129.573 72.749,129.410 73.046,129.714 72.782 C 130.286 72.286,131.290 70.983,131.100 70.983 C 131.041 70.983,130.581 71.496,130.077 72.122 M308.417 77.324 C 308.694 77.793,308.966 78.177,309.023 78.177 C 309.193 78.177,308.415 76.780,308.155 76.620 C 308.022 76.537,308.140 76.854,308.417 77.324 M308.239 90.048 C 308.238 91.235,308.278 91.751,308.329 91.194 C 308.379 90.638,308.380 89.666,308.330 89.036 C 308.280 88.406,308.239 88.861,308.239 90.048 M312.291 95.564 C 312.293 96.091,312.342 96.279,312.400 95.980 C 312.457 95.682,312.455 95.250,312.395 95.021 C 312.335 94.792,312.288 95.036,312.291 95.564 M221.163 105.020 C 220.629 105.407,220.109 105.857,220.008 106.021 C 219.907 106.184,220.344 105.921,220.978 105.437 C 222.357 104.384,222.341 104.386,223.457 105.205 L 224.341 105.853 223.636 105.085 C 222.767 104.137,222.396 104.127,221.163 105.020 M231.894 109.952 C 232.224 110.141,232.602 110.295,232.734 110.295 C 232.866 110.295,232.704 110.141,232.374 109.952 C 232.044 109.764,231.667 109.609,231.535 109.609 C 231.403 109.609,231.565 109.764,231.894 109.952 M234.028 110.813 C 234.608 111.071,235.125 111.238,235.177 111.186 C 235.280 111.082,233.433 110.301,233.149 110.329 C 233.052 110.338,233.448 110.556,234.028 110.813 M138.010 114.149 C 138.659 114.808,139.245 115.348,139.311 115.348 C 139.376 115.348,138.899 114.808,138.249 114.149 C 137.600 113.489,137.014 112.950,136.948 112.950 C 136.883 112.950,137.360 113.489,138.010 114.149 M207.914 113.429 C 207.452 113.682,207.182 113.889,207.314 113.889 C 207.446 113.889,207.932 113.682,208.393 113.429 C 208.855 113.177,209.125 112.970,208.993 112.970 C 208.861 112.970,208.375 113.177,207.914 113.429 M240.288 113.309 C 240.618 113.498,240.995 113.652,241.127 113.652 C 241.259 113.652,241.097 113.498,240.767 113.309 C 240.438 113.121,240.060 112.967,239.928 112.967 C 239.796 112.967,239.958 113.121,240.288 113.309 M203.657 115.161 C 203.340 115.314,203.124 115.628,203.134 115.924 C 203.150 116.385,203.166 116.390,203.326 115.981 C 203.423 115.736,203.766 115.389,204.089 115.210 C 204.784 114.825,204.436 114.785,203.657 115.161 M248.477 115.748 C 248.966 115.878,249.155 116.550,249.027 117.703 L 248.929 118.585 249.194 117.665 C 249.507 116.572,249.172 115.572,248.506 115.615 C 248.139 115.639,248.135 115.657,248.477 115.748 M259.034 119.974 C 258.829 120.221,258.958 120.263,259.664 120.180 C 260.390 120.094,260.464 120.041,260.072 119.886 C 259.395 119.620,259.323 119.627,259.034 119.974 M190.816 120.635 C 191.371 120.745,192.045 120.953,192.315 121.097 C 192.585 121.242,192.806 121.297,192.806 121.219 C 192.806 120.959,191.149 120.383,190.475 120.410 C 189.965 120.430,190.045 120.483,190.816 120.635 M193.046 121.418 C 193.046 121.459,193.396 121.810,193.825 122.197 L 194.604 122.902 193.900 122.122 C 193.243 121.396,193.046 121.233,193.046 121.418 M252.398 122.656 C 251.145 123.427,251.447 123.434,252.793 122.665 C 253.367 122.337,253.729 122.067,253.597 122.066 C 253.465 122.066,252.926 122.331,252.398 122.656 M152.638 122.542 C 152.902 122.655,153.279 122.748,153.477 122.748 C 153.704 122.748,153.660 122.672,153.357 122.542 C 153.094 122.429,152.716 122.336,152.518 122.336 C 152.291 122.336,152.336 122.412,152.638 122.542 M194.724 122.857 C 194.724 122.898,195.075 123.249,195.504 123.636 L 196.283 124.341 195.579 123.561 C 194.922 122.835,194.724 122.672,194.724 122.857 M158.993 124.221 C 159.813 124.483,160.443 124.483,159.832 124.221 C 159.568 124.107,159.137 124.018,158.873 124.022 C 158.487 124.027,158.511 124.066,158.993 124.221 M167.569 125.589 C 167.867 125.647,168.299 125.644,168.528 125.584 C 168.757 125.524,168.513 125.477,167.986 125.480 C 167.458 125.483,167.270 125.532,167.569 125.589 M171.166 125.829 C 171.464 125.886,171.896 125.884,172.125 125.824 C 172.354 125.764,172.110 125.717,171.583 125.720 C 171.055 125.723,170.868 125.772,171.166 125.829 M241.267 131.973 C 241.674 132.292,243.165 133.109,243.165 133.013 C 243.165 132.857,241.609 131.894,241.359 131.894 C 241.253 131.894,241.212 131.930,241.267 131.973 M199.700 133.231 C 198.804 133.717,198.858 133.920,199.760 133.453 C 200.156 133.249,200.480 133.030,200.480 132.967 C 200.480 132.813,200.454 132.822,199.700 133.231 M192.914 140.312 C 192.573 140.984,192.334 141.575,192.383 141.624 C 192.432 141.673,192.762 141.123,193.116 140.401 C 193.470 139.679,193.709 139.089,193.647 139.089 C 193.584 139.089,193.254 139.639,192.914 140.312 M77.112 141.860 C 77.021 142.341,76.995 142.783,77.054 142.841 C 77.113 142.900,77.235 142.554,77.325 142.073 C 77.415 141.592,77.441 141.150,77.382 141.091 C 77.324 141.033,77.202 141.379,77.112 141.860 M237.810 142.846 C 237.506 143.149,237.650 143.464,237.971 143.198 C 238.499 142.759,239.491 144.089,240.437 146.500 C 240.710 147.198,240.749 147.231,240.640 146.676 C 240.237 144.627,238.449 142.206,237.810 142.846 M203.702 143.944 C 203.068 144.645,203.061 144.666,203.639 144.159 C 204.346 143.538,204.796 143.639,204.796 144.419 C 204.796 144.697,204.860 144.860,204.939 144.781 C 205.126 144.594,204.810 143.165,204.582 143.165 C 204.485 143.165,204.089 143.516,203.702 143.944 M76.794 144.125 C 76.794 144.586,76.844 144.775,76.904 144.544 C 76.964 144.314,76.964 143.936,76.904 143.705 C 76.844 143.474,76.794 143.663,76.794 144.125 M202.492 145.709 C 202.293 146.185,202.174 146.618,202.227 146.671 C 202.280 146.724,202.493 146.335,202.701 145.806 C 203.171 144.610,202.987 144.525,202.492 145.709 M76.559 145.923 C 76.562 146.451,76.611 146.638,76.668 146.340 C 76.726 146.042,76.724 145.610,76.664 145.381 C 76.604 145.152,76.557 145.396,76.559 145.923 M190.791 146.547 C 190.703 147.096,190.678 147.593,190.736 147.650 C 190.793 147.707,190.915 147.308,191.007 146.763 C 191.099 146.217,191.124 145.721,191.063 145.659 C 191.001 145.598,190.879 145.997,190.791 146.547 M63.370 147.122 C 63.372 147.650,63.422 147.837,63.479 147.539 C 63.536 147.241,63.534 146.809,63.474 146.580 C 63.414 146.351,63.367 146.595,63.370 147.122 M201.816 147.619 C 201.727 147.970,201.702 148.304,201.758 148.361 C 201.815 148.417,201.933 148.176,202.021 147.825 C 202.109 147.473,202.135 147.139,202.079 147.083 C 202.022 147.026,201.904 147.268,201.816 147.619 M76.328 149.760 C 76.329 150.420,76.376 150.661,76.431 150.296 C 76.486 149.932,76.485 149.392,76.428 149.097 C 76.371 148.802,76.326 149.101,76.328 149.760 M241.555 151.918 C 241.557 152.578,241.604 152.819,241.659 152.455 C 241.714 152.090,241.713 151.551,241.656 151.256 C 241.599 150.961,241.554 151.259,241.555 151.918 M83.993 151.251 C 84.356 151.306,84.949 151.306,85.312 151.251 C 85.674 151.196,85.378 151.151,84.652 151.151 C 83.927 151.151,83.630 151.196,83.993 151.251 M200.840 153.058 C 200.751 154.146,200.780 155.953,200.906 157.074 C 201.128 159.050,201.136 158.990,201.167 155.096 C 201.202 150.695,201.091 150.001,200.840 153.058 M62.858 152.089 L 62.830 152.740 60.612 152.819 L 58.393 152.898 60.619 152.948 C 62.959 153.000,63.255 152.866,62.998 151.873 C 62.923 151.585,62.876 151.658,62.858 152.089 M241.555 156.715 C 241.557 157.374,241.604 157.615,241.659 157.251 C 241.714 156.886,241.713 156.347,241.656 156.052 C 241.599 155.757,241.554 156.055,241.555 156.715 M190.000 158.034 C 190.000 158.759,190.045 159.056,190.100 158.693 C 190.155 158.330,190.155 157.737,190.100 157.374 C 190.045 157.011,190.000 157.308,190.000 158.034 M252.378 159.712 L 252.398 161.271 253.299 161.296 C 254.196 161.321,254.196 161.321,253.370 161.222 L 252.540 161.123 252.449 159.638 L 252.358 158.153 252.378 159.712 M241.307 159.353 C 241.310 159.880,241.359 160.068,241.417 159.769 C 241.474 159.471,241.472 159.039,241.412 158.810 C 241.352 158.581,241.305 158.825,241.307 159.353 M94.891 160.075 C 94.672 160.535,94.542 160.911,94.602 160.911 C 94.766 160.911,95.494 159.443,95.384 159.333 C 95.332 159.281,95.110 159.615,94.891 160.075 M190.168 160.658 L 190.168 161.604 189.029 161.694 L 187.890 161.784 189.149 161.827 L 190.408 161.871 190.408 160.791 C 190.408 160.198,190.354 159.712,190.288 159.712 C 190.222 159.712,190.168 160.138,190.168 160.658 M241.007 160.997 C 241.007 161.480,240.116 161.860,238.893 161.898 C 238.407 161.914,238.211 161.978,238.457 162.041 C 239.826 162.393,241.833 161.417,241.149 160.733 C 241.071 160.655,241.007 160.774,241.007 160.997 M201.439 161.825 C 201.439 162.221,202.343 162.635,202.950 162.518 C 203.446 162.422,203.443 162.413,202.897 162.383 C 202.577 162.365,202.119 162.172,201.877 161.953 C 201.630 161.729,201.439 161.674,201.439 161.825 M292.029 161.800 C 292.327 161.858,292.759 161.855,292.988 161.795 C 293.218 161.735,292.974 161.689,292.446 161.691 C 291.918 161.694,291.731 161.743,292.029 161.800 M289.988 162.036 C 290.219 162.096,290.597 162.096,290.827 162.036 C 291.058 161.975,290.869 161.926,290.408 161.926 C 289.946 161.926,289.757 161.975,289.988 162.036 M234.832 162.285 C 235.327 162.337,236.136 162.337,236.631 162.285 C 237.125 162.233,236.721 162.191,235.731 162.191 C 234.742 162.191,234.338 162.233,234.832 162.285 M205.462 162.766 C 206.026 162.816,206.889 162.816,207.380 162.764 C 207.872 162.713,207.410 162.671,206.355 162.672 C 205.300 162.673,204.898 162.715,205.462 162.766 M283.213 163.909 C 282.884 164.097,282.722 164.252,282.854 164.252 C 282.986 164.252,283.363 164.097,283.693 163.909 C 284.023 163.720,284.185 163.566,284.053 163.566 C 283.921 163.566,283.543 163.720,283.213 163.909 M82.434 164.442 C 82.863 164.495,83.564 164.495,83.993 164.442 C 84.421 164.389,84.071 164.345,83.213 164.345 C 82.356 164.345,82.005 164.389,82.434 164.442 M76.358 165.316 C 76.288 165.497,76.272 166.225,76.321 166.935 L 76.410 168.225 76.454 166.744 C 76.490 165.558,76.582 165.241,76.918 165.153 C 77.312 165.051,77.311 165.042,76.911 165.016 C 76.676 165.001,76.427 165.136,76.358 165.316 M54.860 166.121 C 55.291 166.174,55.939 166.173,56.299 166.119 C 56.660 166.064,56.307 166.020,55.516 166.022 C 54.724 166.023,54.429 166.068,54.860 166.121 M58.697 166.121 C 59.128 166.174,59.776 166.173,60.136 166.119 C 60.497 166.064,60.144 166.020,59.353 166.022 C 58.561 166.023,58.266 166.068,58.697 166.121 M61.871 166.163 C 62.878 166.297,62.959 166.363,63.098 167.146 C 63.245 167.979,63.246 167.980,63.278 167.254 C 63.320 166.272,62.925 165.940,61.763 165.983 L 60.791 166.019 61.871 166.163 M125.839 167.799 C 126.268 167.853,126.969 167.853,127.398 167.799 C 127.827 167.746,127.476 167.703,126.619 167.703 C 125.761 167.703,125.411 167.746,125.839 167.799 M122.726 168.040 C 123.157 168.093,123.805 168.092,124.165 168.037 C 124.525 167.982,124.173 167.939,123.381 167.940 C 122.590 167.941,122.295 167.986,122.726 168.040 M63.370 169.424 C 63.372 169.952,63.422 170.140,63.479 169.841 C 63.536 169.543,63.534 169.111,63.474 168.882 C 63.414 168.653,63.367 168.897,63.370 169.424 M76.573 170.144 C 76.574 170.935,76.619 171.230,76.673 170.799 C 76.726 170.368,76.725 169.721,76.670 169.360 C 76.615 169.000,76.572 169.353,76.573 170.144 M115.588 169.065 C 115.113 169.217,115.088 169.257,115.468 169.257 C 115.731 169.257,116.217 169.170,116.547 169.065 C 117.021 168.913,117.046 168.873,116.667 168.873 C 116.403 168.873,115.917 168.959,115.588 169.065 M102.803 169.844 C 102.056 170.584,102.054 170.593,102.747 170.026 C 103.148 169.697,103.580 169.346,103.705 169.246 C 103.830 169.147,103.856 169.065,103.761 169.065 C 103.667 169.065,103.236 169.415,102.803 169.844 M145.683 169.816 C 145.024 170.224,144.376 170.669,144.245 170.805 C 143.979 171.078,145.632 170.138,146.543 169.497 C 147.501 168.824,146.966 169.022,145.683 169.816 M276.006 169.964 L 275.180 170.863 276.079 170.037 C 276.916 169.268,277.089 169.065,276.906 169.065 C 276.865 169.065,276.461 169.469,276.006 169.964 M110.041 170.084 C 110.223 170.315,110.653 170.489,111.001 170.471 L 111.631 170.438 111.031 170.328 C 110.701 170.267,110.270 170.093,110.072 169.941 C 109.759 169.700,109.755 169.719,110.041 170.084 M168.825 170.377 C 168.825 170.567,170.564 171.243,170.700 171.106 C 170.768 171.039,170.765 170.983,170.693 170.983 C 170.621 170.983,170.171 170.820,169.694 170.620 C 169.216 170.421,168.825 170.311,168.825 170.377 M76.810 172.902 C 76.810 173.627,76.855 173.924,76.910 173.561 C 76.965 173.198,76.965 172.605,76.910 172.242 C 76.855 171.879,76.810 172.176,76.810 172.902 M251.313 172.797 C 251.184 173.136,251.087 173.648,251.098 173.936 C 251.109 174.267,251.223 174.106,251.404 173.501 L 251.692 172.542 253.724 172.407 L 255.755 172.272 253.651 172.227 C 251.595 172.183,251.541 172.196,251.313 172.797 M292.326 172.680 C 288.487 173.175,287.359 173.811,284.082 177.337 C 281.865 179.721,281.707 179.958,281.632 181.010 C 281.557 182.070,281.563 182.084,281.743 181.250 C 282.117 179.520,286.221 175.139,288.524 174.012 C 291.222 172.692,295.155 172.608,296.674 173.838 L 297.232 174.290 296.820 176.653 C 296.011 181.299,293.991 186.478,292.253 188.364 L 291.247 189.456 288.986 189.194 C 283.906 188.607,281.839 187.219,281.745 184.333 C 281.721 183.602,281.604 182.862,281.484 182.689 C 281.348 182.492,281.297 183.022,281.348 184.102 C 281.456 186.402,282.273 187.651,284.065 188.257 C 284.731 188.483,285.595 188.829,285.984 189.026 C 286.372 189.223,287.736 189.459,289.013 189.550 L 291.336 189.715 292.275 188.867 C 294.710 186.667,298.370 175.244,297.121 173.740 C 296.347 172.807,294.501 172.399,292.326 172.680 M187.449 172.842 C 187.390 172.941,188.149 173.032,189.136 173.044 C 190.400 173.059,190.995 173.166,191.146 173.403 C 191.289 173.629,191.361 173.645,191.363 173.450 C 191.371 172.800,187.809 172.247,187.449 172.842 M238.817 173.079 L 239.865 173.172 239.727 174.176 C 239.633 174.861,239.657 175.028,239.802 174.700 C 240.382 173.391,240.132 172.899,238.909 172.944 L 237.770 172.985 238.817 173.079 M202.481 173.751 C 202.403 173.955,202.406 174.189,202.488 174.271 C 202.571 174.353,202.638 174.247,202.638 174.035 C 202.638 173.767,202.910 173.622,203.537 173.556 L 204.436 173.462 203.530 173.422 C 202.906 173.394,202.578 173.497,202.481 173.751 M139.329 175.180 C 138.746 175.773,138.323 176.259,138.389 176.259 C 138.455 176.259,138.986 175.773,139.568 175.180 C 140.151 174.586,140.573 174.101,140.508 174.101 C 140.442 174.101,139.911 174.586,139.329 175.180 M309.047 177.818 C 309.118 179.137,309.215 180.261,309.264 180.316 C 309.423 180.495,309.315 177.848,309.114 176.619 C 308.979 175.788,308.958 176.157,309.047 177.818 M64.109 177.938 C 64.109 178.927,64.152 179.332,64.203 178.837 C 64.255 178.342,64.255 177.533,64.203 177.038 C 64.152 176.544,64.109 176.948,64.109 177.938 M173.349 178.357 C 173.301 178.720,173.320 180.528,173.392 182.374 L 173.522 185.731 173.572 181.715 C 173.618 177.925,173.547 176.855,173.349 178.357 M125.240 178.822 C 125.471 178.883,125.848 178.883,126.079 178.822 C 126.310 178.762,126.121 178.713,125.659 178.713 C 125.198 178.713,125.009 178.762,125.240 178.822 M77.247 180.356 C 77.262 181.202,77.356 182.218,77.454 182.614 C 77.553 183.010,77.579 182.362,77.513 181.175 C 77.371 178.647,77.206 178.138,77.247 180.356 M120.264 179.262 C 118.697 179.665,119.545 179.670,121.823 179.272 C 123.351 179.004,123.459 178.957,122.542 178.956 C 121.948 178.955,120.923 179.093,120.264 179.262 M249.520 179.856 C 249.428 180.401,249.403 180.898,249.465 180.959 C 249.526 181.021,249.648 180.622,249.736 180.072 C 249.824 179.522,249.849 179.026,249.792 178.969 C 249.735 178.911,249.613 179.311,249.520 179.856 M101.285 181.295 C 101.285 182.548,101.326 183.061,101.375 182.434 C 101.425 181.808,101.425 180.782,101.375 180.156 C 101.326 179.529,101.285 180.042,101.285 181.295 M117.100 179.916 C 116.547 180.049,115.785 180.441,115.408 180.787 C 115.031 181.132,114.921 181.259,115.165 181.069 C 115.408 180.878,116.332 180.481,117.216 180.185 C 118.890 179.625,118.835 179.498,117.100 179.916 M193.101 181.775 C 193.101 182.236,193.151 182.425,193.211 182.194 C 193.271 181.963,193.271 181.586,193.211 181.355 C 193.151 181.124,193.101 181.313,193.101 181.775 M249.237 182.974 C 249.237 183.831,249.281 184.182,249.334 183.753 C 249.387 183.324,249.387 182.623,249.334 182.194 C 249.281 181.766,249.237 182.116,249.237 182.974 M135.307 182.494 C 135.307 182.956,135.357 183.144,135.417 182.914 C 135.477 182.683,135.477 182.305,135.417 182.074 C 135.357 181.844,135.307 182.032,135.307 182.494 M309.113 182.974 C 309.113 183.501,309.196 183.933,309.299 183.933 C 309.401 183.933,309.444 183.501,309.394 182.974 C 309.343 182.446,309.260 182.014,309.207 182.014 C 309.155 182.014,309.113 182.446,309.113 182.974 M113.451 183.955 C 113.289 184.496,113.200 184.983,113.254 185.037 C 113.308 185.091,113.485 184.692,113.647 184.151 C 113.809 183.610,113.898 183.123,113.844 183.069 C 113.790 183.015,113.613 183.413,113.451 183.955 M193.351 183.933 C 193.351 184.526,193.397 184.769,193.455 184.472 C 193.512 184.176,193.512 183.690,193.455 183.393 C 193.397 183.097,193.351 183.339,193.351 183.933 M238.171 185.252 C 238.145 185.911,238.073 186.882,238.011 187.410 L 237.897 188.369 238.143 187.410 C 238.278 186.882,238.350 185.911,238.303 185.252 L 238.218 184.053 238.171 185.252 M309.377 184.656 C 309.311 186.283,312.996 190.422,314.495 190.405 C 314.634 190.403,314.263 190.126,313.669 189.789 C 311.682 188.660,310.016 186.630,309.583 184.812 C 309.423 184.144,309.399 184.125,309.377 184.656 M204.395 186.451 C 204.396 187.374,204.440 187.722,204.492 187.225 C 204.543 186.727,204.543 185.972,204.490 185.546 C 204.437 185.120,204.394 185.528,204.395 186.451 M112.861 186.113 C 112.778 186.530,112.724 187.262,112.740 187.740 C 112.761 188.327,112.836 188.108,112.971 187.061 C 113.183 185.421,113.116 184.840,112.861 186.113 M78.199 186.930 C 78.198 187.194,78.404 187.788,78.657 188.249 C 79.249 189.331,79.253 189.147,78.668 187.650 C 78.411 186.990,78.199 186.667,78.199 186.930 M135.298 187.170 C 135.292 187.566,135.374 188.375,135.479 188.969 L 135.671 190.048 135.673 188.969 C 135.674 188.375,135.592 187.566,135.492 187.170 L 135.309 186.451 135.298 187.170 M173.865 189.349 C 173.867 189.601,173.978 189.970,174.112 190.168 C 174.289 190.431,174.312 190.334,174.194 189.808 C 173.997 188.926,173.860 188.735,173.865 189.349 M248.737 190.168 C 248.737 190.629,248.786 190.818,248.846 190.588 C 248.907 190.357,248.907 189.979,248.846 189.748 C 248.786 189.517,248.737 189.706,248.737 190.168 M101.523 191.607 C 101.523 192.728,101.564 193.186,101.614 192.626 C 101.665 192.065,101.665 191.148,101.614 190.588 C 101.564 190.027,101.523 190.486,101.523 191.607 M193.837 191.847 C 193.837 192.572,193.882 192.869,193.937 192.506 C 193.992 192.143,193.992 191.550,193.937 191.187 C 193.882 190.824,193.837 191.121,193.837 191.847 M248.502 191.966 C 248.504 192.494,248.553 192.682,248.611 192.383 C 248.668 192.085,248.666 191.653,248.606 191.424 C 248.546 191.195,248.499 191.439,248.502 191.966 M175.590 192.146 C 175.962 192.509,176.454 192.805,176.682 192.804 C 176.949 192.803,176.841 192.668,176.379 192.428 C 175.984 192.222,175.492 191.926,175.287 191.770 C 175.082 191.614,175.218 191.784,175.590 192.146 M194.724 197.296 C 194.724 197.435,194.946 197.804,195.218 198.115 L 195.712 198.681 195.291 197.962 C 194.736 197.015,194.724 197.001,194.724 197.296 M165.517 198.141 C 165.328 198.369,165.432 198.441,165.947 198.441 C 166.463 198.441,166.566 198.369,166.377 198.141 C 166.240 197.977,166.047 197.842,165.947 197.842 C 165.848 197.842,165.654 197.977,165.517 198.141 M280.790 198.823 C 281.370 199.080,281.887 199.248,281.939 199.196 C 282.043 199.092,280.195 198.311,279.911 198.338 C 279.815 198.348,280.211 198.566,280.790 198.823 M287.350 200.412 C 287.713 200.467,288.306 200.467,288.669 200.412 C 289.032 200.357,288.735 200.312,288.010 200.312 C 287.284 200.312,286.987 200.357,287.350 200.412 " stroke="none" fill="#fcbb62" fill-rule="evenodd"></path><path id="path2" d="M199.463 43.095 C 199.762 43.153,200.193 43.150,200.422 43.090 C 200.652 43.030,200.408 42.983,199.880 42.986 C 199.353 42.989,199.165 43.038,199.463 43.095 M189.991 43.338 C 190.356 43.393,190.895 43.391,191.190 43.334 C 191.485 43.277,191.187 43.232,190.528 43.234 C 189.868 43.236,189.627 43.282,189.991 43.338 M202.698 43.331 C 202.929 43.391,203.306 43.391,203.537 43.331 C 203.768 43.270,203.579 43.221,203.118 43.221 C 202.656 43.221,202.467 43.270,202.698 43.331 M206.175 43.575 C 206.472 43.632,206.957 43.632,207.254 43.575 C 207.551 43.517,207.308 43.471,206.715 43.471 C 206.121 43.471,205.878 43.517,206.175 43.575 M196.106 46.692 C 196.404 46.750,196.836 46.748,197.065 46.688 C 197.294 46.628,197.050 46.581,196.523 46.583 C 195.995 46.586,195.808 46.635,196.106 46.692 M190.348 47.172 C 190.644 47.229,191.130 47.229,191.427 47.172 C 191.724 47.114,191.481 47.068,190.887 47.068 C 190.294 47.068,190.051 47.114,190.348 47.172 M202.218 47.168 C 202.449 47.228,202.827 47.228,203.058 47.168 C 203.288 47.107,203.100 47.058,202.638 47.058 C 202.176 47.058,201.987 47.107,202.218 47.168 M224.565 51.638 C 224.935 52.122,225.285 52.518,225.345 52.518 C 225.511 52.518,224.473 51.115,224.166 50.925 C 224.016 50.833,224.196 51.153,224.565 51.638 M270.803 55.561 C 271.034 55.621,271.412 55.621,271.643 55.561 C 271.874 55.501,271.685 55.451,271.223 55.451 C 270.761 55.451,270.573 55.501,270.803 55.561 M228.777 56.475 C 229.224 56.936,229.644 57.314,229.710 57.314 C 229.776 57.314,229.464 56.936,229.017 56.475 C 228.569 56.013,228.149 55.635,228.083 55.635 C 228.017 55.635,228.330 56.013,228.777 56.475 M138.954 63.369 L 138.249 64.149 139.029 63.444 C 139.457 63.057,139.808 62.706,139.808 62.665 C 139.808 62.480,139.610 62.643,138.954 63.369 M236.930 63.669 C 236.601 63.858,236.439 64.012,236.571 64.012 C 236.703 64.012,237.080 63.858,237.410 63.669 C 237.740 63.481,237.902 63.326,237.770 63.326 C 237.638 63.326,237.260 63.481,236.930 63.669 M133.329 68.765 L 131.055 71.103 133.393 68.830 C 134.679 67.579,135.731 66.527,135.731 66.492 C 135.731 66.318,135.440 66.593,133.329 68.765 M135.492 72.062 C 134.909 72.656,134.486 73.141,134.552 73.141 C 134.618 73.141,135.149 72.656,135.731 72.062 C 136.314 71.469,136.737 70.983,136.671 70.983 C 136.605 70.983,136.074 71.469,135.492 72.062 M305.275 72.602 C 305.589 73.031,305.883 73.381,305.929 73.381 C 306.111 73.381,305.516 72.482,305.123 72.163 C 304.864 71.952,304.922 72.120,305.275 72.602 M231.007 74.101 C 231.007 74.826,231.052 75.123,231.107 74.760 C 231.162 74.397,231.162 73.804,231.107 73.441 C 231.052 73.079,231.007 73.375,231.007 74.101 M312.311 93.046 C 312.311 94.035,312.353 94.439,312.405 93.945 C 312.457 93.450,312.457 92.641,312.405 92.146 C 312.353 91.652,312.311 92.056,312.311 93.046 M133.573 105.111 C 133.573 105.152,133.924 105.503,134.353 105.890 L 135.132 106.595 134.428 105.815 C 133.771 105.089,133.573 104.926,133.573 105.111 M129.736 106.475 C 130.018 106.871,130.302 107.194,130.368 107.194 C 130.434 107.194,130.258 106.871,129.976 106.475 C 129.694 106.079,129.410 105.755,129.344 105.755 C 129.278 105.755,129.454 106.079,129.736 106.475 M226.379 107.413 C 226.709 107.682,227.086 107.904,227.218 107.905 C 227.475 107.906,227.041 107.574,226.259 107.170 C 225.940 107.005,225.981 107.087,226.379 107.413 M130.935 107.989 C 130.935 108.030,131.286 108.381,131.715 108.768 L 132.494 109.472 131.790 108.693 C 131.133 107.967,130.935 107.803,130.935 107.989 M306.106 109.173 L 304.916 110.432 306.175 109.242 C 306.868 108.587,307.434 108.021,307.434 107.983 C 307.434 107.804,307.212 108.003,306.106 109.173 M141.247 111.631 C 141.963 112.356,142.604 112.950,142.669 112.950 C 142.735 112.950,142.203 112.356,141.487 111.631 C 140.770 110.905,140.130 110.312,140.064 110.312 C 139.998 110.312,140.531 110.905,141.247 111.631 M138.609 114.508 C 139.326 115.234,139.966 115.827,140.032 115.827 C 140.098 115.827,139.565 115.234,138.849 114.508 C 138.133 113.783,137.492 113.189,137.426 113.189 C 137.361 113.189,137.893 113.783,138.609 114.508 M190.468 115.993 C 190.698 116.053,191.076 116.053,191.307 115.993 C 191.538 115.932,191.349 115.883,190.887 115.883 C 190.426 115.883,190.237 115.932,190.468 115.993 M264.089 120.555 C 264.451 120.610,265.045 120.610,265.408 120.555 C 265.770 120.501,265.474 120.456,264.748 120.456 C 264.023 120.456,263.726 120.501,264.089 120.555 M169.008 121.752 C 169.306 121.810,169.738 121.808,169.967 121.748 C 170.196 121.687,169.952 121.641,169.424 121.643 C 168.897 121.646,168.709 121.695,169.008 121.752 M195.684 123.621 C 196.014 124.017,196.310 124.385,196.343 124.440 C 196.376 124.495,196.456 124.488,196.520 124.423 C 196.585 124.358,196.288 123.990,195.862 123.604 L 195.086 122.902 195.684 123.621 M157.554 123.730 C 157.752 123.864,158.121 123.975,158.373 123.977 C 158.987 123.982,158.795 123.845,157.914 123.648 C 157.388 123.530,157.291 123.552,157.554 123.730 M165.228 125.275 C 165.228 125.327,165.650 125.410,166.167 125.459 C 166.683 125.508,167.055 125.465,166.992 125.364 C 166.878 125.180,165.228 125.096,165.228 125.275 M205.096 131.340 C 205.327 131.401,205.704 131.401,205.935 131.340 C 206.166 131.280,205.977 131.231,205.516 131.231 C 205.054 131.231,204.865 131.280,205.096 131.340 M213.309 134.053 C 213.825 134.580,214.300 135.012,214.366 135.012 C 214.432 135.012,214.064 134.580,213.549 134.053 C 213.034 133.525,212.559 133.094,212.493 133.094 C 212.427 133.094,212.794 133.525,213.309 134.053 M243.405 133.345 C 244.237 133.910,244.711 134.074,244.125 133.595 C 243.795 133.325,243.417 133.103,243.285 133.103 C 243.153 133.102,243.207 133.211,243.405 133.345 M195.714 136.326 C 195.170 136.916,194.724 137.474,194.724 137.565 C 194.724 137.655,194.760 137.685,194.803 137.630 C 194.847 137.575,195.346 137.017,195.913 136.391 C 196.480 135.764,196.890 135.252,196.824 135.252 C 196.758 135.252,196.258 135.735,195.714 136.326 M225.960 140.647 C 225.962 141.175,226.012 141.363,226.069 141.064 C 226.126 140.766,226.124 140.334,226.064 140.105 C 226.004 139.876,225.957 140.120,225.960 140.647 M63.605 145.084 C 63.605 145.546,63.654 145.734,63.714 145.504 C 63.775 145.273,63.775 144.895,63.714 144.664 C 63.654 144.433,63.605 144.622,63.605 145.084 M236.813 145.557 C 236.730 145.817,236.210 146.424,235.657 146.905 C 235.105 147.387,234.880 147.664,235.159 147.521 C 235.745 147.220,237.170 145.657,237.170 145.315 C 237.170 144.924,236.971 145.059,236.813 145.557 M214.644 146.827 C 213.961 147.669,213.934 147.739,214.486 147.242 C 215.060 146.725,215.741 145.795,215.536 145.808 C 215.498 145.810,215.097 146.269,214.644 146.827 M241.011 148.581 C 241.013 148.834,241.124 149.203,241.258 149.400 C 241.436 149.663,241.458 149.566,241.340 149.041 C 241.143 148.159,241.006 147.968,241.011 148.581 M252.343 151.079 C 252.343 151.673,252.390 151.915,252.447 151.619 C 252.505 151.322,252.505 150.836,252.447 150.540 C 252.390 150.243,252.343 150.486,252.343 151.079 M241.813 154.197 C 241.813 155.450,241.853 155.962,241.903 155.336 C 241.952 154.709,241.952 153.684,241.903 153.058 C 241.853 152.431,241.813 152.944,241.813 154.197 M190.010 155.036 C 190.011 156.091,190.053 156.493,190.104 155.929 C 190.155 155.365,190.154 154.502,190.102 154.010 C 190.051 153.519,190.009 153.981,190.010 155.036 M252.072 160.204 C 252.021 161.493,252.315 161.637,254.904 161.584 L 257.194 161.538 254.796 161.404 L 252.398 161.271 252.252 160.312 L 252.106 159.353 252.072 160.204 M186.511 162.047 C 187.203 162.096,188.336 162.096,189.029 162.047 C 189.721 161.999,189.155 161.959,187.770 161.959 C 186.385 161.959,185.818 161.999,186.511 162.047 M237.710 162.276 C 237.941 162.336,238.318 162.336,238.549 162.276 C 238.780 162.215,238.591 162.166,238.129 162.166 C 237.668 162.166,237.479 162.215,237.710 162.276 M230.576 163.309 C 230.180 163.571,229.964 163.784,230.096 163.782 C 230.336 163.778,231.640 162.844,231.415 162.837 C 231.349 162.835,230.971 163.047,230.576 163.309 M88.192 163.959 C 88.491 164.016,88.922 164.014,89.151 163.954 C 89.381 163.894,89.137 163.847,88.609 163.849 C 88.082 163.852,87.894 163.901,88.192 163.959 M212.847 164.771 C 213.233 165.245,213.598 165.592,213.657 165.543 C 213.716 165.493,213.400 165.105,212.955 164.681 L 212.145 163.909 212.847 164.771 M305.276 166.547 C 305.723 167.008,306.143 167.386,306.209 167.386 C 306.275 167.386,305.963 167.008,305.516 166.547 C 305.068 166.085,304.648 165.707,304.582 165.707 C 304.516 165.707,304.828 166.085,305.276 166.547 M263.141 167.626 C 263.141 168.351,263.186 168.648,263.241 168.285 C 263.296 167.923,263.296 167.329,263.241 166.966 C 263.186 166.604,263.141 166.900,263.141 167.626 M128.600 167.798 C 128.965 167.853,129.505 167.852,129.799 167.795 C 130.094 167.738,129.796 167.693,129.137 167.694 C 128.477 167.696,128.236 167.743,128.600 167.798 M125.123 168.035 C 125.421 168.093,125.853 168.090,126.082 168.030 C 126.311 167.970,126.067 167.924,125.540 167.926 C 125.012 167.929,124.824 167.978,125.123 168.035 M120.683 168.271 C 120.914 168.331,121.292 168.331,121.523 168.271 C 121.754 168.211,121.565 168.161,121.103 168.161 C 120.641 168.161,120.453 168.211,120.683 168.271 M106.055 168.750 C 106.286 168.811,106.664 168.811,106.894 168.750 C 107.125 168.690,106.936 168.641,106.475 168.641 C 106.013 168.641,105.824 168.690,106.055 168.750 M228.316 168.839 C 228.306 169.045,228.465 169.422,228.670 169.678 C 229.037 170.136,229.040 170.136,228.823 169.664 C 228.701 169.400,228.542 169.023,228.469 168.825 C 228.353 168.514,228.333 168.516,228.316 168.839 M307.203 169.337 C 307.198 169.421,307.352 169.852,307.545 170.296 C 307.737 170.740,307.895 170.941,307.896 170.743 C 307.897 170.398,307.220 169.025,307.203 169.337 M109.814 170.084 C 110.134 170.447,110.619 170.731,110.893 170.716 C 111.375 170.689,111.376 170.684,110.911 170.572 C 110.647 170.508,110.162 170.224,109.832 169.940 L 109.233 169.424 109.814 170.084 M101.109 172.311 C 101.027 172.526,100.969 172.881,100.980 173.101 C 100.991 173.321,101.096 173.183,101.212 172.794 C 101.438 172.037,101.358 171.662,101.109 172.311 M239.314 172.796 C 239.749 172.879,240.059 173.109,240.125 173.399 C 240.208 173.765,240.225 173.749,240.200 173.325 C 240.174 172.892,240.009 172.770,239.388 172.722 C 238.648 172.665,238.644 172.668,239.314 172.796 M204.739 173.551 C 205.037 173.608,205.469 173.606,205.698 173.546 C 205.928 173.486,205.683 173.439,205.156 173.442 C 204.628 173.444,204.441 173.494,204.739 173.551 M283.324 177.998 L 282.134 179.257 283.393 178.067 C 284.086 177.412,284.652 176.846,284.652 176.808 C 284.652 176.629,284.430 176.828,283.324 177.998 M101.255 178.417 C 101.255 178.879,101.304 179.068,101.364 178.837 C 101.425 178.606,101.425 178.228,101.364 177.998 C 101.304 177.767,101.255 177.956,101.255 178.417 M123.357 178.857 C 123.473 179.046,124.940 178.947,124.940 178.750 C 124.940 178.699,124.556 178.657,124.087 178.657 C 123.617 178.657,123.289 178.747,123.357 178.857 M173.228 182.254 C 173.228 183.507,173.268 184.020,173.318 183.393 C 173.367 182.767,173.367 181.742,173.318 181.115 C 173.268 180.489,173.228 181.001,173.228 182.254 M281.355 181.655 C 281.358 182.182,281.407 182.370,281.465 182.072 C 281.522 181.773,281.520 181.342,281.460 181.112 C 281.400 180.883,281.353 181.127,281.355 181.655 M238.425 181.775 C 238.425 182.236,238.474 182.425,238.535 182.194 C 238.595 181.963,238.595 181.586,238.535 181.355 C 238.474 181.124,238.425 181.313,238.425 181.775 M270.592 184.412 C 270.592 185.797,270.632 186.364,270.680 185.671 C 270.729 184.979,270.729 183.846,270.680 183.153 C 270.632 182.461,270.592 183.028,270.592 184.412 M204.132 182.974 C 204.132 183.435,204.182 183.624,204.242 183.393 C 204.302 183.162,204.302 182.785,204.242 182.554 C 204.182 182.323,204.132 182.512,204.132 182.974 M249.008 185.492 C 249.009 186.811,249.049 187.320,249.098 186.623 C 249.147 185.926,249.146 184.847,249.097 184.225 C 249.048 183.602,249.008 184.173,249.008 185.492 M101.516 188.249 C 101.516 189.107,101.559 189.457,101.612 189.029 C 101.666 188.600,101.666 187.899,101.612 187.470 C 101.559 187.041,101.516 187.392,101.516 188.249 M112.526 187.770 C 112.526 188.231,112.575 188.420,112.635 188.189 C 112.696 187.959,112.696 187.581,112.635 187.350 C 112.575 187.119,112.526 187.308,112.526 187.770 M311.151 188.249 C 311.666 188.777,312.142 189.209,312.208 189.209 C 312.274 189.209,311.906 188.777,311.391 188.249 C 310.876 187.722,310.400 187.290,310.334 187.290 C 310.268 187.290,310.636 187.722,311.151 188.249 M83.273 190.093 C 83.504 190.154,83.882 190.154,84.113 190.093 C 84.344 190.033,84.155 189.984,83.693 189.984 C 83.231 189.984,83.043 190.033,83.273 190.093 M194.082 193.285 C 194.082 194.143,194.125 194.493,194.178 194.065 C 194.231 193.636,194.231 192.935,194.178 192.506 C 194.125 192.077,194.082 192.428,194.082 193.285 M204.873 194.484 C 204.873 195.342,204.916 195.692,204.970 195.264 C 205.023 194.835,205.023 194.134,204.970 193.705 C 204.916 193.276,204.873 193.627,204.873 194.484 M101.518 195.084 C 101.519 196.007,101.562 196.356,101.614 195.858 C 101.666 195.360,101.665 194.605,101.612 194.179 C 101.559 193.754,101.516 194.161,101.518 195.084 M301.405 194.904 C 300.715 195.737,300.423 196.163,300.542 196.163 C 300.608 196.163,300.951 195.785,301.303 195.324 C 301.956 194.467,302.035 194.144,301.405 194.904 M246.388 198.381 L 245.683 199.161 246.463 198.456 C 247.189 197.800,247.352 197.602,247.167 197.602 C 247.126 197.602,246.775 197.953,246.388 198.381 M196.042 199.003 C 196.304 199.312,196.734 199.676,197.000 199.812 C 197.509 200.073,197.435 199.992,196.285 199.037 C 195.592 198.462,195.584 198.461,196.042 199.003 M244.768 199.437 C 244.682 199.522,243.936 199.677,243.109 199.780 L 241.607 199.967 243.109 199.908 C 243.935 199.876,244.739 199.721,244.896 199.565 C 245.052 199.408,245.122 199.281,245.052 199.281 C 244.982 199.281,244.854 199.351,244.768 199.437 M168.335 200.540 C 169.329 201.598,169.544 201.789,169.544 201.609 C 169.544 201.570,169.032 201.058,168.405 200.470 L 167.266 199.400 168.335 200.540 M143.165 200.130 C 143.165 200.305,145.112 201.230,145.317 201.153 C 145.426 201.112,144.986 200.843,144.340 200.555 C 143.694 200.266,143.165 200.075,143.165 200.130 M285.671 200.172 C 286.034 200.227,286.628 200.227,286.990 200.172 C 287.353 200.117,287.056 200.072,286.331 200.072 C 285.606 200.072,285.309 200.117,285.671 200.172 M313.609 201.368 C 313.906 201.425,314.391 201.425,314.688 201.368 C 314.985 201.311,314.742 201.264,314.149 201.264 C 313.555 201.264,313.312 201.311,313.609 201.368 M151.619 202.335 C 152.245 202.384,153.270 202.384,153.897 202.335 C 154.523 202.285,154.011 202.245,152.758 202.245 C 151.505 202.245,150.992 202.285,151.619 202.335 M176.202 203.767 C 176.500 203.824,176.932 203.822,177.161 203.762 C 177.390 203.702,177.146 203.655,176.619 203.658 C 176.091 203.660,175.904 203.709,176.202 203.767 " stroke="none" fill="#fca735" fill-rule="evenodd"></path><path id="path3" d="M197.902 43.091 C 198.132 43.151,198.510 43.151,198.741 43.091 C 198.972 43.031,198.783 42.981,198.321 42.981 C 197.860 42.981,197.671 43.031,197.902 43.091 M276.913 55.809 C 277.339 55.862,278.094 55.862,278.592 55.811 C 279.089 55.759,278.741 55.715,277.818 55.714 C 276.894 55.713,276.487 55.756,276.913 55.809 M312.286 90.647 C 312.286 91.109,312.335 91.298,312.396 91.067 C 312.456 90.836,312.456 90.459,312.396 90.228 C 312.335 89.997,312.286 90.186,312.286 90.647 M127.638 91.247 C 127.641 91.775,127.690 91.962,127.748 91.664 C 127.805 91.366,127.803 90.934,127.743 90.705 C 127.683 90.475,127.636 90.719,127.638 91.247 M276.166 120.100 C 276.099 120.209,276.363 120.250,276.751 120.193 C 277.140 120.136,277.458 120.048,277.458 119.997 C 277.458 119.814,276.285 119.908,276.166 120.100 M272.251 120.292 C 272.434 120.475,274.340 120.464,274.526 120.278 C 274.600 120.204,274.085 120.144,273.381 120.144 C 272.678 120.144,272.169 120.211,272.251 120.292 M266.487 120.555 C 266.850 120.610,267.443 120.610,267.806 120.555 C 268.168 120.501,267.872 120.456,267.146 120.456 C 266.421 120.456,266.124 120.501,266.487 120.555 M169.991 125.634 C 170.288 125.822,171.223 125.730,171.223 125.512 C 171.223 125.461,170.872 125.421,170.444 125.423 C 169.914 125.426,169.769 125.493,169.991 125.634 M235.795 130.868 C 236.159 130.923,236.699 130.921,236.994 130.864 C 237.289 130.807,236.990 130.762,236.331 130.764 C 235.671 130.766,235.430 130.812,235.795 130.868 M229.244 133.513 L 228.417 134.412 229.317 133.586 C 230.154 132.817,230.326 132.614,230.143 132.614 C 230.103 132.614,229.698 133.019,229.244 133.513 M231.595 148.131 C 231.891 148.188,232.377 148.188,232.674 148.131 C 232.971 148.074,232.728 148.027,232.134 148.027 C 231.541 148.027,231.298 148.074,231.595 148.131 M252.365 154.916 C 252.365 156.169,252.405 156.682,252.454 156.055 C 252.504 155.429,252.504 154.403,252.454 153.777 C 252.405 153.150,252.365 153.663,252.365 154.916 M60.971 153.163 C 61.202 153.223,61.580 153.223,61.811 153.163 C 62.041 153.103,61.853 153.053,61.391 153.053 C 60.929 153.053,60.740 153.103,60.971 153.163 M205.935 163.005 C 206.496 163.056,207.413 163.056,207.974 163.005 C 208.534 162.955,208.076 162.914,206.954 162.914 C 205.833 162.914,205.375 162.955,205.935 163.005 M84.355 164.198 C 84.654 164.256,85.085 164.254,85.315 164.194 C 85.544 164.134,85.300 164.087,84.772 164.089 C 84.245 164.092,84.057 164.141,84.355 164.198 M157.377 166.599 C 157.742 166.654,158.281 166.653,158.576 166.596 C 158.871 166.539,158.573 166.494,157.914 166.495 C 157.254 166.497,157.013 166.544,157.377 166.599 M122.242 168.275 C 122.539 168.332,123.025 168.332,123.321 168.275 C 123.618 168.218,123.375 168.171,122.782 168.171 C 122.188 168.171,121.945 168.218,122.242 168.275 M252.218 172.112 C 252.515 172.169,253.001 172.169,253.297 172.112 C 253.594 172.055,253.351 172.008,252.758 172.008 C 252.164 172.008,251.921 172.055,252.218 172.112 M135.072 173.022 C 135.075 173.549,135.124 173.737,135.182 173.438 C 135.239 173.140,135.237 172.708,135.177 172.479 C 135.117 172.250,135.070 172.494,135.072 173.022 M237.470 172.827 C 237.701 172.887,238.079 172.887,238.309 172.827 C 238.540 172.767,238.351 172.718,237.890 172.718 C 237.428 172.718,237.239 172.767,237.470 172.827 M101.025 174.341 C 101.025 174.934,101.071 175.177,101.128 174.880 C 101.186 174.583,101.186 174.098,101.128 173.801 C 101.071 173.504,101.025 173.747,101.025 174.341 M207.254 173.553 C 207.617 173.608,208.210 173.608,208.573 173.553 C 208.936 173.498,208.639 173.453,207.914 173.453 C 207.188 173.453,206.891 173.498,207.254 173.553 M122.122 178.822 C 122.353 178.883,122.731 178.883,122.962 178.822 C 123.192 178.762,123.004 178.713,122.542 178.713 C 122.080 178.713,121.891 178.762,122.122 178.822 M101.519 181.535 C 101.519 182.524,101.562 182.929,101.614 182.434 C 101.665 181.939,101.665 181.130,101.614 180.635 C 101.562 180.141,101.519 180.546,101.519 181.535 M238.336 183.273 C 238.288 183.702,238.314 184.538,238.393 185.132 C 238.513 186.030,238.543 185.900,238.573 184.353 C 238.610 182.443,238.488 181.891,238.336 183.273 M204.142 184.652 C 204.142 185.246,204.189 185.489,204.246 185.192 C 204.303 184.895,204.303 184.409,204.246 184.113 C 204.189 183.816,204.142 184.059,204.142 184.652 M101.381 185.312 C 101.528 186.854,101.622 186.980,101.651 185.671 C 101.666 184.979,101.592 184.412,101.487 184.412 C 101.382 184.412,101.334 184.817,101.381 185.312 M237.718 194.125 C 237.720 194.784,237.767 195.025,237.822 194.661 C 237.877 194.296,237.876 193.757,237.819 193.462 C 237.762 193.167,237.717 193.465,237.718 194.125 M290.194 200.346 C 290.376 200.528,292.548 200.578,292.721 200.404 C 292.812 200.314,292.256 200.240,291.487 200.240 C 290.717 200.240,290.136 200.288,290.194 200.346 " stroke="none" fill="#fca423" fill-rule="evenodd"></path><path id="path4" d="M196.463 43.091 C 196.694 43.151,197.071 43.151,197.302 43.091 C 197.533 43.031,197.344 42.981,196.882 42.981 C 196.421 42.981,196.232 43.031,196.463 43.091 M199.225 43.339 C 199.656 43.393,200.303 43.392,200.664 43.337 C 201.024 43.282,200.671 43.238,199.880 43.240 C 199.089 43.241,198.794 43.286,199.225 43.339 M189.508 43.571 C 189.739 43.631,190.117 43.631,190.348 43.571 C 190.579 43.510,190.390 43.461,189.928 43.461 C 189.466 43.461,189.278 43.510,189.508 43.571 M203.540 43.575 C 203.838 43.632,204.270 43.630,204.499 43.570 C 204.728 43.510,204.484 43.463,203.957 43.466 C 203.429 43.468,203.242 43.518,203.540 43.575 M179.559 45.254 C 179.857 45.311,180.289 45.309,180.518 45.249 C 180.748 45.189,180.504 45.142,179.976 45.144 C 179.448 45.147,179.261 45.196,179.559 45.254 M194.908 46.457 C 195.339 46.510,195.987 46.509,196.347 46.454 C 196.708 46.400,196.355 46.356,195.564 46.357 C 194.772 46.359,194.477 46.403,194.908 46.457 M198.744 46.692 C 199.042 46.750,199.474 46.748,199.703 46.688 C 199.932 46.628,199.688 46.581,199.161 46.583 C 198.633 46.586,198.446 46.635,198.744 46.692 M205.099 47.174 C 205.464 47.230,206.003 47.228,206.298 47.171 C 206.593 47.114,206.295 47.069,205.635 47.071 C 204.976 47.073,204.735 47.119,205.099 47.174 M187.110 47.408 C 187.341 47.468,187.719 47.468,187.950 47.408 C 188.180 47.347,187.992 47.298,187.530 47.298 C 187.068 47.298,186.879 47.347,187.110 47.408 M273.741 55.635 L 271.103 55.780 273.667 55.828 C 275.171 55.856,276.292 55.776,276.379 55.635 C 276.460 55.504,276.494 55.417,276.453 55.443 C 276.412 55.469,275.192 55.556,273.741 55.635 M228.537 56.475 C 228.985 56.936,229.405 57.314,229.471 57.314 C 229.537 57.314,229.224 56.936,228.777 56.475 C 228.330 56.013,227.910 55.635,227.844 55.635 C 227.778 55.635,228.090 56.013,228.537 56.475 M279.676 56.041 C 279.907 56.101,280.285 56.101,280.516 56.041 C 280.746 55.980,280.558 55.931,280.096 55.931 C 279.634 55.931,279.445 55.980,279.676 56.041 M268.825 59.088 C 268.825 59.140,269.248 59.223,269.764 59.272 C 270.280 59.321,270.652 59.278,270.589 59.177 C 270.475 58.993,268.825 58.909,268.825 59.088 M273.441 59.398 C 273.672 59.458,274.050 59.458,274.281 59.398 C 274.511 59.338,274.323 59.288,273.861 59.288 C 273.399 59.288,273.210 59.338,273.441 59.398 M279.496 59.486 C 280.711 59.737,281.693 59.726,280.695 59.472 C 280.300 59.372,279.652 59.289,279.257 59.289 C 278.652 59.288,278.690 59.319,279.496 59.486 M293.661 60.885 C 293.589 61.003,293.825 61.279,294.187 61.499 L 294.844 61.899 294.315 61.435 C 294.024 61.180,293.853 60.903,293.935 60.821 C 294.017 60.739,294.019 60.671,293.939 60.671 C 293.859 60.671,293.734 60.768,293.661 60.885 M251.918 62.479 C 250.966 62.808,250.965 62.810,251.799 62.675 C 252.260 62.600,252.740 62.443,252.866 62.325 C 253.146 62.061,253.109 62.067,251.918 62.479 M290.101 63.087 C 290.394 63.393,290.694 63.582,290.768 63.508 C 290.842 63.435,290.602 63.185,290.235 62.953 L 289.568 62.532 290.101 63.087 M298.776 65.280 C 299.278 65.850,299.760 65.974,299.760 65.533 C 299.760 65.453,299.687 65.461,299.598 65.550 C 299.509 65.639,299.158 65.468,298.819 65.170 L 298.201 64.628 298.776 65.280 M294.650 66.247 C 294.885 66.544,295.726 67.376,296.519 68.097 C 297.799 69.261,297.760 69.200,296.169 67.558 C 294.349 65.679,293.878 65.272,294.650 66.247 M135.795 66.072 C 135.895 66.183,135.686 66.578,135.330 66.950 C 134.974 67.322,134.736 67.626,134.802 67.626 C 135.212 67.626,136.221 66.222,135.931 66.055 C 135.755 65.953,135.694 65.961,135.795 66.072 M132.846 69.484 L 131.535 70.863 132.914 69.553 C 133.672 68.832,134.293 68.211,134.293 68.174 C 134.293 67.996,134.063 68.203,132.846 69.484 M298.082 69.619 C 298.082 69.661,298.432 70.011,298.861 70.399 L 299.640 71.103 298.936 70.324 C 298.279 69.597,298.082 69.434,298.082 69.619 M234.532 71.703 C 234.532 72.230,234.616 72.662,234.719 72.662 C 234.821 72.662,234.864 72.230,234.813 71.703 C 234.763 71.175,234.679 70.743,234.627 70.743 C 234.575 70.743,234.532 71.175,234.532 71.703 M135.252 72.062 C 134.669 72.656,134.247 73.141,134.313 73.141 C 134.379 73.141,134.909 72.656,135.492 72.062 C 136.074 71.469,136.497 70.983,136.431 70.983 C 136.365 70.983,135.834 71.469,135.252 72.062 M129.601 73.201 L 128.897 73.981 129.676 73.276 C 130.105 72.889,130.456 72.538,130.456 72.497 C 130.456 72.312,130.258 72.475,129.601 73.201 M302.510 75.285 C 302.710 75.672,302.983 76.056,303.116 76.138 C 303.249 76.221,303.131 75.904,302.854 75.434 C 302.247 74.405,302.000 74.297,302.510 75.285 M127.647 89.329 C 127.648 89.988,127.695 90.229,127.750 89.865 C 127.805 89.500,127.804 88.961,127.747 88.666 C 127.690 88.371,127.645 88.669,127.647 89.329 M308.349 91.218 C 308.307 92.588,308.342 94.017,308.425 94.396 C 308.508 94.774,308.589 93.654,308.605 91.906 C 308.638 88.142,308.457 87.654,308.349 91.218 M123.797 89.928 C 123.797 90.390,123.846 90.579,123.906 90.348 C 123.967 90.117,123.967 89.739,123.906 89.508 C 123.846 89.278,123.797 89.466,123.797 89.928 M312.081 93.765 C 312.081 95.282,312.120 95.902,312.168 95.144 C 312.215 94.385,312.215 93.144,312.168 92.386 C 312.120 91.628,312.081 92.248,312.081 93.765 M308.321 95.525 C 308.253 95.702,308.294 95.999,308.412 96.185 C 308.568 96.431,308.627 96.343,308.629 95.863 C 308.633 95.147,308.516 95.018,308.321 95.525 M226.983 98.937 C 226.624 99.407,226.368 99.830,226.415 99.876 C 226.461 99.922,226.803 99.537,227.174 99.021 C 228.018 97.847,227.865 97.779,226.983 98.937 M225.668 100.704 C 225.349 101.299,225.355 101.439,225.699 101.439 C 225.853 101.439,225.911 101.371,225.828 101.287 C 225.744 101.204,225.784 100.934,225.916 100.688 C 226.048 100.441,226.102 100.240,226.036 100.240 C 225.970 100.240,225.804 100.449,225.668 100.704 M305.807 103.177 C 305.661 103.474,305.309 104.068,305.025 104.496 C 304.742 104.925,304.559 105.276,304.619 105.276 C 304.679 105.276,305.122 104.682,305.604 103.957 C 306.086 103.231,306.388 102.638,306.276 102.638 C 306.164 102.638,305.953 102.881,305.807 103.177 M229.463 104.799 C 229.774 105.061,230.125 105.276,230.242 105.276 C 230.652 105.276,230.449 105.068,229.676 104.696 L 228.897 104.322 229.463 104.799 M133.573 105.351 C 133.573 105.392,133.924 105.743,134.353 106.130 L 135.132 106.835 134.428 106.055 C 133.771 105.329,133.573 105.166,133.573 105.351 M303.105 106.894 L 302.278 107.794 303.177 106.967 C 303.672 106.513,304.077 106.108,304.077 106.068 C 304.077 105.885,303.874 106.057,303.105 106.894 M131.655 108.513 C 132.102 108.975,132.522 109.353,132.588 109.353 C 132.654 109.353,132.342 108.975,131.894 108.513 C 131.447 108.052,131.027 107.674,130.961 107.674 C 130.895 107.674,131.207 108.052,131.655 108.513 M305.995 108.993 C 305.413 109.586,304.990 110.072,305.056 110.072 C 305.122 110.072,305.653 109.586,306.235 108.993 C 306.818 108.399,307.240 107.914,307.174 107.914 C 307.108 107.914,306.578 108.399,305.995 108.993 M243.165 110.392 C 243.165 110.454,243.514 110.626,243.939 110.774 C 244.365 110.923,244.608 110.945,244.479 110.825 C 244.206 110.569,243.165 110.226,243.165 110.392 M296.643 111.283 L 296.043 111.764 296.703 111.479 C 297.065 111.322,297.362 111.103,297.362 110.993 C 297.362 110.719,297.329 110.733,296.643 111.283 M141.607 112.230 C 142.122 112.758,142.597 113.189,142.663 113.189 C 142.729 113.189,142.362 112.758,141.847 112.230 C 141.331 111.703,140.856 111.271,140.790 111.271 C 140.724 111.271,141.092 111.703,141.607 112.230 M246.727 111.572 C 246.848 111.692,247.202 111.751,247.514 111.702 C 247.994 111.626,247.961 111.593,247.295 111.482 C 246.818 111.403,246.594 111.438,246.727 111.572 M248.501 111.916 C 248.732 111.976,249.110 111.976,249.341 111.916 C 249.571 111.856,249.382 111.806,248.921 111.806 C 248.459 111.806,248.270 111.856,248.501 111.916 M294.784 112.131 C 294.356 112.318,294.005 112.519,294.005 112.578 C 294.005 112.755,295.434 112.200,295.578 111.967 C 295.738 111.708,295.761 111.703,294.784 112.131 M138.489 114.149 C 139.139 114.808,139.724 115.348,139.790 115.348 C 139.856 115.348,139.379 114.808,138.729 114.149 C 138.079 113.489,137.494 112.950,137.428 112.950 C 137.362 112.950,137.840 113.489,138.489 114.149 M284.772 115.108 C 284.470 115.238,284.426 115.314,284.652 115.314 C 284.850 115.314,285.228 115.221,285.492 115.108 C 285.794 114.978,285.838 114.902,285.612 114.902 C 285.414 114.902,285.036 114.995,284.772 115.108 M190.348 116.236 C 190.644 116.294,191.130 116.294,191.427 116.236 C 191.724 116.179,191.481 116.132,190.887 116.132 C 190.294 116.132,190.051 116.179,190.348 116.236 M249.466 117.026 C 249.466 117.620,249.513 117.863,249.570 117.566 C 249.627 117.269,249.627 116.784,249.570 116.487 C 249.513 116.190,249.466 116.433,249.466 117.026 M276.921 116.477 C 277.220 116.534,277.651 116.532,277.880 116.472 C 278.110 116.412,277.866 116.365,277.338 116.367 C 276.811 116.370,276.623 116.419,276.921 116.477 M265.348 116.809 C 264.688 116.887,265.713 116.951,267.626 116.950 C 271.029 116.950,271.216 116.865,268.106 116.733 C 267.248 116.696,266.007 116.731,265.348 116.809 M194.245 117.593 C 194.245 117.659,194.568 117.944,194.964 118.225 C 195.360 118.507,195.683 118.684,195.683 118.618 C 195.683 118.552,195.360 118.267,194.964 117.986 C 194.568 117.704,194.245 117.527,194.245 117.593 M264.089 120.316 C 264.451 120.371,265.045 120.371,265.408 120.316 C 265.770 120.261,265.474 120.216,264.748 120.216 C 264.023 120.216,263.726 120.261,264.089 120.316 M269.247 120.553 C 269.546 120.611,269.977 120.608,270.207 120.548 C 270.436 120.488,270.192 120.442,269.664 120.444 C 269.137 120.447,268.949 120.496,269.247 120.553 M164.211 121.513 C 164.510 121.570,164.941 121.568,165.171 121.508 C 165.400 121.448,165.156 121.401,164.628 121.403 C 164.101 121.406,163.913 121.455,164.211 121.513 M166.247 121.748 C 166.478 121.808,166.856 121.808,167.086 121.748 C 167.317 121.688,167.128 121.638,166.667 121.638 C 166.205 121.638,166.016 121.688,166.247 121.748 M169.608 121.995 C 169.972 122.050,170.512 122.048,170.807 121.991 C 171.102 121.934,170.803 121.889,170.144 121.891 C 169.484 121.893,169.243 121.940,169.608 121.995 M196.532 124.228 C 197.318 125.089,198.011 125.760,198.070 125.718 C 198.130 125.676,197.487 124.971,196.641 124.152 L 195.102 122.662 196.532 124.228 M164.808 125.112 C 165.171 125.167,165.764 125.167,166.127 125.112 C 166.490 125.057,166.193 125.012,165.468 125.012 C 164.742 125.012,164.445 125.057,164.808 125.112 M168.288 125.349 C 168.586 125.407,169.018 125.405,169.247 125.345 C 169.477 125.285,169.233 125.238,168.705 125.240 C 168.177 125.243,167.990 125.292,168.288 125.349 M171.877 125.593 C 172.303 125.646,173.058 125.647,173.556 125.595 C 174.053 125.543,173.705 125.499,172.782 125.498 C 171.859 125.497,171.451 125.540,171.877 125.593 M229.367 133.633 L 228.177 134.892 229.436 133.702 C 230.606 132.596,230.805 132.374,230.626 132.374 C 230.589 132.374,230.022 132.941,229.367 133.633 M213.070 134.053 C 213.585 134.580,214.060 135.012,214.126 135.012 C 214.192 135.012,213.825 134.580,213.309 134.053 C 212.794 133.525,212.319 133.094,212.253 133.094 C 212.187 133.094,212.554 133.525,213.070 134.053 M244.125 133.900 C 244.125 133.966,244.448 134.251,244.844 134.532 C 245.240 134.814,245.564 134.991,245.564 134.925 C 245.564 134.859,245.240 134.574,244.844 134.293 C 244.448 134.011,244.125 133.834,244.125 133.900 M227.750 135.490 C 227.566 135.753,227.326 135.888,227.218 135.790 C 227.110 135.692,227.099 135.746,227.194 135.911 C 227.427 136.316,227.464 136.301,227.916 135.612 C 228.380 134.902,228.236 134.796,227.750 135.490 M196.268 136.031 L 195.564 136.811 196.343 136.106 C 196.772 135.719,197.122 135.368,197.122 135.327 C 197.122 135.142,196.924 135.305,196.268 136.031 M226.208 140.408 C 226.209 141.067,226.256 141.308,226.311 140.944 C 226.366 140.579,226.365 140.040,226.308 139.745 C 226.251 139.450,226.206 139.748,226.208 140.408 M216.402 140.145 C 216.331 140.330,216.311 140.843,216.357 141.284 C 216.431 141.987,216.455 141.946,216.555 140.947 C 216.673 139.779,216.630 139.552,216.402 140.145 M237.570 142.366 C 237.482 142.454,237.412 142.643,237.414 142.786 C 237.416 142.929,237.519 142.885,237.643 142.688 C 237.841 142.376,237.969 142.386,238.659 142.768 L 239.448 143.205 238.849 142.711 C 238.225 142.197,237.842 142.094,237.570 142.366 M63.854 144.604 C 63.854 145.198,63.901 145.441,63.958 145.144 C 64.015 144.847,64.015 144.362,63.958 144.065 C 63.901 143.768,63.854 144.011,63.854 144.604 M214.370 146.935 C 214.051 147.294,213.961 147.457,214.171 147.297 C 214.381 147.137,214.624 147.060,214.710 147.124 C 214.797 147.189,214.815 147.171,214.750 147.084 C 214.685 146.998,214.753 146.782,214.900 146.605 C 215.400 146.002,214.954 146.280,214.370 146.935 M207.194 147.600 C 207.194 147.764,208.663 148.492,208.772 148.382 C 208.824 148.330,208.491 148.108,208.031 147.889 C 207.571 147.669,207.194 147.539,207.194 147.600 M209.895 148.613 C 210.260 148.668,210.799 148.667,211.094 148.610 C 211.389 148.553,211.091 148.508,210.432 148.510 C 209.772 148.512,209.531 148.558,209.895 148.613 M252.094 150.360 C 252.094 150.821,252.143 151.010,252.204 150.779 C 252.264 150.549,252.264 150.171,252.204 149.940 C 252.143 149.709,252.094 149.898,252.094 150.360 M88.073 151.251 C 88.437 151.306,88.977 151.305,89.272 151.248 C 89.567 151.191,89.269 151.146,88.609 151.148 C 87.950 151.150,87.708 151.196,88.073 151.251 M83.034 151.484 C 83.264 151.545,83.642 151.545,83.873 151.484 C 84.104 151.424,83.915 151.375,83.453 151.375 C 82.992 151.375,82.803 151.424,83.034 151.484 M190.150 151.499 C 190.139 151.598,190.100 151.841,190.062 152.038 C 190.025 152.236,190.079 152.614,190.184 152.878 C 190.325 153.234,190.378 153.095,190.391 152.338 C 190.405 151.505,190.216 150.848,190.150 151.499 M52.758 153.237 L 52.158 153.429 52.818 153.453 C 53.180 153.466,53.477 153.369,53.477 153.237 C 53.477 153.106,53.450 153.008,53.417 153.022 C 53.384 153.035,53.088 153.132,52.758 153.237 M55.935 153.175 C 56.826 153.222,58.282 153.222,59.173 153.175 C 60.063 153.129,59.335 153.092,57.554 153.092 C 55.773 153.092,55.045 153.129,55.935 153.175 M242.035 154.077 C 242.037 154.736,242.083 154.978,242.139 154.613 C 242.194 154.248,242.192 153.709,242.135 153.414 C 242.078 153.119,242.033 153.417,242.035 154.077 M190.463 160.192 C 190.463 160.653,190.513 160.842,190.573 160.612 C 190.633 160.381,190.633 160.003,190.573 159.772 C 190.513 159.541,190.463 159.730,190.463 160.192 M251.802 160.212 C 251.804 160.662,251.905 161.187,252.026 161.378 C 252.168 161.603,252.197 161.349,252.109 160.659 C 251.939 159.335,251.797 159.128,251.802 160.212 M254.616 161.806 C 255.177 161.857,256.094 161.857,256.655 161.806 C 257.215 161.756,256.757 161.714,255.635 161.714 C 254.514 161.714,254.056 161.756,254.616 161.806 M294.125 161.871 L 292.446 162.026 294.051 162.068 C 294.933 162.091,295.722 162.002,295.803 161.871 C 295.885 161.739,295.918 161.650,295.877 161.673 C 295.837 161.696,295.048 161.785,294.125 161.871 M186.511 162.287 C 187.203 162.336,188.336 162.336,189.029 162.287 C 189.721 162.239,189.155 162.199,187.770 162.199 C 186.385 162.199,185.818 162.239,186.511 162.287 M201.408 162.410 C 201.589 162.641,201.967 162.817,202.248 162.802 C 202.732 162.775,202.734 162.768,202.278 162.656 C 202.014 162.591,201.637 162.415,201.439 162.264 C 201.126 162.026,201.122 162.045,201.408 162.410 M234.952 162.527 C 235.644 162.575,236.778 162.575,237.470 162.527 C 238.162 162.478,237.596 162.439,236.211 162.439 C 234.826 162.439,234.260 162.478,234.952 162.527 M203.780 162.999 C 204.078 163.057,204.510 163.055,204.739 162.995 C 204.968 162.934,204.724 162.888,204.197 162.890 C 203.669 162.893,203.481 162.942,203.780 162.999 M230.256 163.969 C 229.754 164.470,229.679 164.590,230.085 164.240 C 230.487 163.895,231.031 163.493,231.295 163.348 C 231.559 163.203,231.636 163.081,231.466 163.077 C 231.296 163.073,230.751 163.474,230.256 163.969 M85.911 163.954 C 86.142 164.015,86.520 164.015,86.751 163.954 C 86.981 163.894,86.793 163.845,86.331 163.845 C 85.869 163.845,85.680 163.894,85.911 163.954 M56.175 165.937 C 56.670 166.033,57.479 166.033,57.974 165.937 C 58.681 165.800,58.489 165.763,57.074 165.763 C 55.660 165.763,55.468 165.800,56.175 165.937 M262.898 167.506 C 262.900 168.165,262.947 168.407,263.002 168.042 C 263.057 167.678,263.055 167.138,262.999 166.843 C 262.942 166.548,262.897 166.847,262.898 167.506 M76.075 167.386 C 76.075 167.848,76.124 168.037,76.184 167.806 C 76.245 167.575,76.245 167.197,76.184 166.966 C 76.124 166.736,76.075 166.924,76.075 167.386 M152.221 167.316 C 152.519 167.373,152.951 167.371,153.180 167.311 C 153.410 167.251,153.165 167.204,152.638 167.207 C 152.110 167.209,151.923 167.259,152.221 167.316 M128.118 168.040 C 128.612 168.092,129.421 168.092,129.916 168.040 C 130.411 167.989,130.006 167.946,129.017 167.946 C 128.028 167.946,127.623 167.989,128.118 168.040 M124.161 168.275 C 124.457 168.332,124.943 168.332,125.240 168.275 C 125.537 168.218,125.294 168.171,124.700 168.171 C 124.107 168.171,123.864 168.218,124.161 168.275 M121.047 168.519 C 121.478 168.572,122.126 168.571,122.486 168.517 C 122.847 168.462,122.494 168.418,121.703 168.420 C 120.911 168.421,120.616 168.466,121.047 168.519 M117.386 169.065 C 117.084 169.195,117.039 169.271,117.266 169.271 C 117.464 169.271,117.842 169.178,118.106 169.065 C 118.408 168.935,118.452 168.859,118.225 168.859 C 118.028 168.859,117.650 168.951,117.386 169.065 M132.854 168.900 C 132.854 168.941,133.204 169.292,133.633 169.679 L 134.412 170.384 133.708 169.604 C 133.052 168.878,132.854 168.715,132.854 168.900 M110.041 170.564 C 110.222 170.794,110.600 170.971,110.881 170.955 C 111.365 170.929,111.367 170.922,110.911 170.810 C 110.647 170.745,110.270 170.569,110.072 170.418 C 109.759 170.180,109.755 170.199,110.041 170.564 M229.598 171.143 C 229.630 171.363,229.845 171.571,230.077 171.605 C 230.476 171.663,230.477 171.644,230.079 171.205 C 229.570 170.642,229.523 170.636,229.598 171.143 M63.845 171.703 C 63.845 172.164,63.894 172.353,63.954 172.122 C 64.015 171.891,64.015 171.514,63.954 171.283 C 63.894 171.052,63.845 171.241,63.845 171.703 M293.585 172.348 C 293.816 172.408,294.194 172.408,294.424 172.348 C 294.655 172.287,294.466 172.238,294.005 172.238 C 293.543 172.238,293.354 172.287,293.585 172.348 M189.272 172.594 C 189.636 172.649,190.176 172.648,190.471 172.591 C 190.766 172.534,190.468 172.489,189.808 172.491 C 189.149 172.492,188.907 172.539,189.272 172.594 M239.318 172.633 C 239.935 172.744,240.190 172.936,240.314 173.381 C 240.453 173.883,240.484 173.901,240.504 173.489 C 240.538 172.793,240.071 172.417,239.221 172.454 L 238.489 172.485 239.318 172.633 M232.854 172.850 C 232.854 172.953,233.636 173.002,234.592 172.959 C 237.306 172.836,237.498 172.730,235.072 172.695 C 233.852 172.677,232.854 172.746,232.854 172.850 M184.116 173.071 C 184.414 173.129,184.845 173.126,185.075 173.066 C 185.304 173.006,185.060 172.959,184.532 172.962 C 184.005 172.965,183.817 173.014,184.116 173.071 M204.257 173.311 C 204.553 173.368,205.039 173.368,205.336 173.311 C 205.632 173.254,205.390 173.207,204.796 173.207 C 204.203 173.207,203.960 173.254,204.257 173.311 M285.477 175.360 L 284.772 176.139 285.552 175.435 C 286.278 174.778,286.441 174.580,286.256 174.580 C 286.215 174.580,285.864 174.931,285.477 175.360 M173.657 175.580 C 173.637 175.932,173.559 176.417,173.483 176.659 C 173.353 177.074,173.360 177.075,173.618 176.673 C 173.769 176.438,173.847 175.953,173.792 175.593 L 173.693 174.940 173.657 175.580 M77.065 178.657 C 77.065 179.910,77.105 180.423,77.155 179.796 C 77.204 179.170,77.204 178.144,77.155 177.518 C 77.105 176.891,77.065 177.404,77.065 178.657 M283.205 177.878 L 281.894 179.257 283.273 177.946 C 284.554 176.728,284.762 176.499,284.584 176.499 C 284.547 176.499,283.926 177.119,283.205 177.878 M127.278 178.347 C 127.575 178.404,128.061 178.404,128.357 178.347 C 128.654 178.290,128.411 178.243,127.818 178.243 C 127.224 178.243,126.981 178.290,127.278 178.347 M124.524 178.589 C 124.888 178.644,125.428 178.643,125.723 178.586 C 126.018 178.529,125.719 178.484,125.060 178.486 C 124.400 178.488,124.159 178.534,124.524 178.589 M308.965 181.775 C 308.965 183.423,309.004 184.098,309.050 183.273 C 309.097 182.449,309.097 181.100,309.050 180.276 C 309.004 179.451,308.965 180.126,308.965 181.775 M203.622 179.646 C 203.575 180.381,203.895 181.527,204.110 181.394 C 204.228 181.321,204.251 181.144,204.162 181.000 C 204.073 180.855,203.921 180.404,203.823 179.997 C 203.726 179.590,203.635 179.432,203.622 179.646 M270.624 183.693 C 270.624 185.778,270.704 187.434,270.803 187.373 C 270.902 187.312,270.983 185.656,270.983 183.693 C 270.983 181.730,270.902 180.074,270.803 180.013 C 270.704 179.952,270.624 181.608,270.624 183.693 M64.337 181.175 C 64.339 181.835,64.386 182.076,64.441 181.711 C 64.496 181.347,64.494 180.807,64.437 180.512 C 64.380 180.217,64.335 180.516,64.337 181.175 M281.137 182.854 C 281.138 183.909,281.180 184.311,281.231 183.747 C 281.282 183.183,281.281 182.319,281.229 181.828 C 281.178 181.337,281.136 181.799,281.137 182.854 M193.607 184.772 C 193.608 185.827,193.650 186.229,193.701 185.665 C 193.752 185.101,193.751 184.238,193.699 183.747 C 193.648 183.256,193.607 183.717,193.607 184.772 M248.768 185.372 C 248.768 186.625,248.808 187.137,248.857 186.511 C 248.907 185.884,248.907 184.859,248.857 184.233 C 248.808 183.606,248.768 184.119,248.768 185.372 M238.430 186.930 C 238.432 187.458,238.482 187.646,238.539 187.347 C 238.596 187.049,238.594 186.617,238.534 186.388 C 238.474 186.159,238.427 186.403,238.430 186.930 M101.773 190.168 C 101.773 191.948,101.810 192.677,101.856 191.787 C 101.903 190.896,101.903 189.439,101.856 188.549 C 101.810 187.659,101.773 188.387,101.773 190.168 M311.021 188.309 C 312.015 189.368,312.230 189.559,312.230 189.378 C 312.230 189.340,311.718 188.827,311.091 188.239 L 309.952 187.170 311.021 188.309 M135.797 188.729 C 135.797 189.323,135.843 189.565,135.901 189.269 C 135.958 188.972,135.958 188.486,135.901 188.189 C 135.843 187.893,135.797 188.135,135.797 188.729 M112.555 191.727 C 112.554 192.914,112.595 193.430,112.645 192.873 C 112.696 192.316,112.696 191.345,112.647 190.715 C 112.597 190.084,112.556 190.540,112.555 191.727 M287.950 189.857 C 288.246 189.915,288.732 189.915,289.029 189.857 C 289.326 189.800,289.083 189.754,288.489 189.754 C 287.896 189.754,287.653 189.800,287.950 189.857 M237.958 191.487 C 237.960 192.146,238.007 192.388,238.062 192.023 C 238.117 191.659,238.115 191.119,238.058 190.824 C 238.002 190.529,237.956 190.827,237.958 191.487 M248.276 191.727 C 248.277 192.518,248.322 192.813,248.375 192.382 C 248.429 191.951,248.428 191.303,248.373 190.943 C 248.318 190.583,248.274 190.935,248.276 191.727 M204.560 192.146 C 204.558 192.641,204.598 193.046,204.648 193.046 C 204.856 193.046,204.949 191.854,204.764 191.562 C 204.636 191.361,204.562 191.573,204.560 192.146 M304.636 196.763 C 304.636 196.960,304.691 197.067,304.758 197.000 C 304.826 196.933,305.158 197.122,305.498 197.419 C 305.999 197.858,305.983 197.814,305.411 197.181 C 304.592 196.277,304.636 196.300,304.636 196.763 M239.209 198.042 C 239.605 198.482,240.144 198.954,240.408 199.091 C 240.671 199.227,240.779 199.245,240.647 199.129 C 240.516 199.014,239.976 198.542,239.449 198.081 L 238.490 197.242 239.209 198.042 M242.269 199.692 C 242.634 199.748,243.174 199.746,243.469 199.689 C 243.763 199.632,243.465 199.587,242.806 199.589 C 242.146 199.591,241.905 199.637,242.269 199.692 M313.493 201.131 C 313.857 201.186,314.397 201.185,314.692 201.128 C 314.986 201.071,314.688 201.026,314.029 201.028 C 313.369 201.030,313.128 201.076,313.493 201.131 M179.667 202.149 C 178.976 202.774,178.733 203.136,178.925 203.255 C 179.105 203.366,179.148 203.329,179.040 203.155 C 178.884 202.903,179.183 202.766,179.694 202.855 C 179.803 202.874,179.832 202.793,179.760 202.676 C 179.613 202.439,180.424 201.607,180.615 201.798 C 180.681 201.864,180.735 201.757,180.735 201.559 C 180.735 201.361,180.726 201.203,180.715 201.209 C 180.704 201.214,180.233 201.637,179.667 202.149 M149.708 202.067 C 149.876 202.234,154.717 202.198,154.887 202.028 C 154.947 201.968,153.773 201.918,152.278 201.918 C 150.783 201.918,149.627 201.985,149.708 202.067 M79.559 203.287 C 79.857 203.344,80.289 203.342,80.518 203.282 C 80.748 203.222,80.504 203.175,79.976 203.178 C 79.448 203.181,79.261 203.230,79.559 203.287 M175.959 203.527 C 176.256 203.584,176.742 203.584,177.038 203.527 C 177.335 203.469,177.092 203.423,176.499 203.423 C 175.905 203.423,175.662 203.469,175.959 203.527 " stroke="none" fill="#fc9c1c" fill-rule="evenodd"></path></g></svg>