<svg id="Capa_1" enable-background="new 0 0 512 512" height="512" viewBox="0 0 512 512" width="512" xmlns="http://www.w3.org/2000/svg"><g><path d="m504.5 62.74v298.68h-490.989l-.341-297.723c0-11.05 3.28-20.957 14.33-20.957h457c11.05 0 20 8.95 20 20z" fill="#faf8f8"/><path d="m330.815 174.866v92.923h-149.714v-92.943z" fill="#b27a49"/><path d="m195.319 145.846-10.634 1.89c-7.018 0-12.707 5.689-12.707 12.707v1.702c0 13.381 10.848 24.229 24.229 24.229l7.074.377h105.439l7.074-.377c13.381 0 24.229-10.848 24.229-24.229v-1.702c0-7.018-5.689-12.707-12.707-12.707l-8.836-1.188z" fill="#f2bb88"/><path d="m226.087 245.234 3.725-26.273 52.341-.042 3.199 26.054-29.363 35.587z" fill="#f2bb88"/><path d="m356.255 320.25-6.546-36.671c-1.97-10.437-9.45-18.982-19.533-22.317l-8.877-2.948-16.98-.426-48.929 2.904-51.064 1.692-14.745-3.788-7.758 2.566c-10.084 3.335-17.563 11.881-19.533 22.317l-6.546 36.671 102.495 29.917z" fill="#ffbf54"/><path d="m314.15 277.44-31.7 25.48c-1.77 1.42-3.77 2.52-5.88 3.27-2.12.75-4.37 1.14-6.63 1.14-5.59 0-10.77-2.33-14.47-6.2-3.7 3.87-8.88 6.2-14.46 6.2-4.53 0-8.98-1.57-12.52-4.41l-31.7-25.48c-5.68-4.57-8.34-11.75-7.21-18.75l20.236-6.738 45.574 8.841 44.288-9.735 21.621 7.253c1.291 7.119-1.359 14.479-7.149 19.129z" fill="#ffa442"/><path d="m273.054 291.226 31.697-25.48c1.676-1.347 2.302-3.615 1.555-5.631l-5.99-16.162c-1.13-3.048-4.684-4.407-7.559-2.889l-37.366 19.729 9.813 28.182c1.136 3.261 5.158 4.414 7.85 2.251z" fill="#ffbf54"/><path d="m237.89 291.226-31.697-25.48c-1.676-1.347-2.302-3.615-1.555-5.631l5.99-16.162c1.13-3.048 4.684-4.407 7.559-2.889l37.366 19.729-9.813 28.182c-1.136 3.261-5.159 4.414-7.85 2.251z" fill="#ffbf54"/><path d="m194.696 147.736c1.249 43.919 28.218 79.01 61.304 79.01 33.134 0 60.133-35.192 61.309-79.2l-60.963-59.906z" fill="#f2d1a5"/><g fill="#c48958"><path d="m283.363 170.478c-4.143 0-7.5-3.358-7.5-7.5v-6.477c0-4.142 3.357-7.5 7.5-7.5s7.5 3.358 7.5 7.5v6.477c0 4.142-3.357 7.5-7.5 7.5z"/><path d="m228.636 170.478c-4.142 0-7.5-3.358-7.5-7.5v-6.477c0-4.142 3.358-7.5 7.5-7.5s7.5 3.358 7.5 7.5v6.477c0 4.142-3.358 7.5-7.5 7.5z"/><path d="m330.815 148.226-11.039-.535c-25.97-.987-47.471-18.098-50.987-40.356-.597-3.777-4.53-3.249-5.239-.834-.867 2.951-2.81 6.347-5.62 9.895-11.412 14.408-37.13 24.982-63.233 24.982l-8.84 4.468h-1.707c0-11.013 1.329-15.021 5.176-24.145 1.412-3.349 3.255-6.496 5.371-9.451 6.489-9.059 13.061-18.059 20.857-22.702 11.299-6.428 23.546-13.298 40.404-13.298 48.432 0 74.857 30.455 74.857 70.659z"/></g><path d="m209.99 132.14c18.57 0 36.95-8.57 50.11-18.71-9.8 14.64-36.38 33.53-63.71 34.28-.56.02-1.13.03-1.69.03l-13.6.51v-1.34c0-11.01 1.96-21.3 5.81-30.42 1.41-3.35 3.25-6.5 5.37-9.45 5.21-7.27 10.8-13.23 16.84-17.7 1.48-1.1 2.99-2.1 4.53-3.02 11.3-6.43 25.45-10.07 42.31-10.07 2.58 0 5.11.09 7.56.26-13.5.95-25.05 4.39-34.58 9.81-7.8 4.64-14.88 11.66-21.37 20.72-2.12 2.95-3.96 6.1-5.37 9.45-1.834 4.277-3.169 8.873-4.171 13.602-.272 1.282.727 2.482 2.037 2.427 3.57-.15 9.661-.37 9.924-.379z" fill="#b27a49"/><path d="m293.596 443.186-8.969-27.895-.002-.001h.005l-4.18-13-25.316-23.745-23.584 23.745-13.15 40.9h24.18l.001-.004z" fill="#3f597d"/><path d="m334.005 454.84c-4.442-9.474-14.111-16.012-25.261-16.015h-93.064l-11.411 4.198c-1.488 0-24.035 8.671-24.035 22.611 0 5.52 4.48 10 10 10l132.979-1.064c5.52 0 10-4.48 10-10 0-2.059 3.243-1.876 2.818-3.809-.454-2.068-1.139-4.051-2.026-5.921z" fill="#5d748a"/><path d="m336.68 466.694c.013 5.536-4.464 10.066-10 10.066h-141.36c-5.513 0-9.996-4.466-10-9.979-.01-13.949 10.203-25.52 23.56-27.621 1.43-.22 2.89-.34 4.38-.34h12.42l-6.878 9.124c-3.974 5.271-.213 12.816 6.388 12.816h120.84c.425 1.909.645 3.897.65 5.934z" fill="#3f597d"/><path d="m27.5 341.42v-298.68c-11.05 0-20 8.95-20 20v298.68h6.01 13.99 477v-16h-473c-2.209 0-4-1.791-4-4z" fill="#f0e9e6"/><path d="m365.5 95.792c0-8.284 6.716-15 15-15h75.947c8.284 0 15 6.716 15 15v94c0 8.284-6.716 15-15 15h-11.97c-.586 0-1.158.171-1.648.493l-35.682 23.452c-1.995 1.311-4.648-.12-4.648-2.507v-18.438c0-1.657-1.343-3-3-3h-19c-8.284 0-15-6.716-15-15v-94z" fill="#aad8de"/><g><g><path d="m445.461 120.075h-54.508c-4.143 0-7.5-3.358-7.5-7.5s3.357-7.5 7.5-7.5h54.508c4.143 0 7.5 3.358 7.5 7.5s-3.357 7.5-7.5 7.5z" fill="#faf8f8"/></g><g><path d="m445.461 150.304h-54.508c-4.143 0-7.5-3.358-7.5-7.5s3.357-7.5 7.5-7.5h54.508c4.143 0 7.5 3.358 7.5 7.5s-3.357 7.5-7.5 7.5z" fill="#faf8f8"/></g><g><path d="m423.514 180.509h-32.561c-4.143 0-7.5-3.358-7.5-7.5s3.357-7.5 7.5-7.5h32.561c4.143 0 7.5 3.358 7.5 7.5s-3.358 7.5-7.5 7.5z" fill="#faf8f8"/></g></g><g><path d="m261.812 209.188h-11.623c-4.142 0-7.5-3.358-7.5-7.5s3.358-7.5 7.5-7.5h11.623c4.143 0 7.5 3.358 7.5 7.5s-3.358 7.5-7.5 7.5z" fill="#f2bb88"/></g><path d="m213.673 361.888-80.928-.468v-33.01c0-5.523-.632-9.532 4.891-9.532h66.037c5.523 0 10 4.477 10 10z" fill="#aad8de"/><path d="m299.019 361.888h-85.346l2.136-32c0-5.523 4.477-10 10-10l1.861-1.011h61.349c5.523 0 10 4.477 10 10z" fill="#aad8de"/><path d="m309.02 344.41v17.478l-57.505 6.128-37.845-6.128v-33.01c0-5.523 4.477-10 10-10h4v18.532c0 3.866 3.134 7 7 7z" fill="#94ccd4"/><path d="m382.106 362.569-83.088-.681 4.279-31.829c0-5.523.199-9.021 5.722-9.021l4-2.16h61.344c5.523 0 10 4.477 10 10v19.01z" fill="#aad8de"/><path d="m223.67 345.41v16.478l-56.017 6.128-40.013-6.128v-33.01c0-5.52 4.47-10 10-10h4v19.532c0 3.866 3.134 7 7 7z" fill="#94ccd4"/><path d="m384.36 345.41v16.478l-51.19 7.15-34.15-7.15v-33.01c0-5.523 4.477-10 10-10h4v19.532c0 3.866 3.134 7 7 7z" fill="#94ccd4"/><path d="m504.5 361.42v20.87c0 11.05-15.258 16.113-26.309 16.113l-445.702.142c-11.05 0-20-8.95-20-20l-4.989-17.125z" fill="#5d748a"/><g><path d="m484.5 409.79h-457c-15.164 0-27.5-12.336-27.5-27.5v-319.55c0-15.164 12.336-27.5 27.5-27.5h457c15.164 0 27.5 12.336 27.5 27.5v319.55c0 15.164-12.336 27.5-27.5 27.5zm-457-359.55c-6.893 0-12.5 5.607-12.5 12.5v319.55c0 6.893 5.607 12.5 12.5 12.5h457c6.893 0 12.5-5.607 12.5-12.5v-319.55c0-6.893-5.607-12.5-12.5-12.5z" fill="#3f597d"/></g></g></svg>