<svg id="Capa_1" enable-background="new 0 0 512 512" height="512" viewBox="0 0 512 512" width="512" xmlns="http://www.w3.org/2000/svg" xmlns:xlink="http://www.w3.org/1999/xlink"><linearGradient id="SVGID_1_" gradientUnits="userSpaceOnUse" x1="233.5" x2="233.5" y1="512" y2="0"><stop offset="0" stop-color="#fd5900"/><stop offset="1" stop-color="#ffde00"/></linearGradient><linearGradient id="SVGID_2_" gradientUnits="userSpaceOnUse" x1="308.5" x2="308.5" y1="452" y2="60"><stop offset="0" stop-color="#ffe59a"/><stop offset="1" stop-color="#ffffd5"/></linearGradient><g><g><g><path d="m256 196v60h180v-60zm95.742 106.143c-5.537-2.344-12.07-1.025-16.348 3.252l-34.394 34.394v-23.789c0-8.291-6.709-15-15-15h-45v-150h105c8.291 0 15-6.709 15-15v-91c0-24.814-20.186-45-45-45h-240c-24.814 0-45 20.186-45 45v422c0 24.814 20.186 45 45 45h240c24.814 0 45-20.186 45-45v-151c0-6.064-3.662-11.543-9.258-13.857z" fill="url(#SVGID_1_)"/></g></g><g><g><path d="m466 121h-240c-8.401 0-15 6.599-15 15v180c0 8.399 6.599 15 15 15h45v45c0 6 3.6 11.4 9.3 13.799 4.357 2.181 11.796 1.597 16.199-3.3l55.802-55.499h113.699c8.401 0 15-6.601 15-15v-180c0-8.401-6.599-15-15-15zm-180 120c-8.401 0-15-6.601-15-15 0-8.401 6.599-15 15-15s15 6.599 15 15c0 8.399-6.599 15-15 15zm60 0c-8.401 0-15-6.601-15-15 0-8.401 6.599-15 15-15s15 6.599 15 15c0 8.399-6.599 15-15 15zm60 0c-8.401 0-15-6.601-15-15 0-8.401 6.599-15 15-15s15 6.599 15 15c0 8.399-6.599 15-15 15zm-210-166c0-8.291-6.709-15-15-15h-30c-8.291 0-15 6.709-15 15s6.709 15 15 15h30c8.291 0 15-6.709 15-15zm15 347h-30c-8.291 0-15 6.709-15 15s6.709 15 15 15h30c8.291 0 15-6.709 15-15s-6.709-15-15-15zm30-332c8.284 0 15-6.716 15-15s-6.716-15-15-15-15 6.716-15 15 6.716 15 15 15z" fill="url(#SVGID_2_)"/></g></g></g></svg>